<svg xmlns="http://www.w3.org/2000/svg" xmlns:xlink="http://www.w3.org/1999/xlink" width="22" height="23" viewBox="0 0 22 23"><defs><style>.a{clip-path:url(#a);}.b{fill:#3a559f;}.c{fill:#fff;}</style><clipPath id="a"><ellipse cx="11" cy="11.5" rx="11" ry="11.5" transform="translate(-0.385 0.423)"/></clipPath></defs><g transform="translate(0.385 -0.423)"><g transform="translate(0 0)"><g class="a"><ellipse class="b" cx="11" cy="11.5" rx="11" ry="11.5" transform="translate(-0.385 0.423)"/><path class="c" d="M95.785,64.744l-2.336,0a4.1,4.1,0,0,0-4.323,4.435V71.22H86.777a.367.367,0,0,0-.367.367V74.55a.366.366,0,0,0,.367.367h2.349v7.844h3.8V74.917h2.747a.367.367,0,0,0,.368-.367V71.588a.368.368,0,0,0-.368-.368H92.927V69.486c0-.833.2-1.256,1.283-1.256h1.575a.368.368,0,0,0,.367-.367V65.111A.368.368,0,0,0,95.785,64.744Z" transform="translate(-80.359 -59.351)"/></g></g></g></svg>