<svg xmlns="http://www.w3.org/2000/svg" xmlns:xlink="http://www.w3.org/1999/xlink" width="1920" height="404" viewBox="0 0 1920 404"><defs><style>.a{fill:#000c22;}.b{clip-path:url(#a);}.c{opacity:0.05;}.d{mix-blend-mode:color-dodge;isolation:isolate;}.e,.f{fill:none;stroke:#fff;stroke-miterlimit:10;}.e{stroke-width:0.5px;}.f{stroke-width:0.75px;}</style><clipPath id="a"><rect class="a" width="1920" height="404" transform="translate(12 2040)"/></clipPath></defs><g class="b" transform="translate(-12 -2040)"><g class="c" transform="translate(2025.37 2270.831) rotate(167)"><g class="d" transform="translate(0 0)"><path class="e" d="M0,170.61S123.624,8.745,241.444.489C403.659-10.878,512.08,179.526,595.354,204.506S762.443,74.48,869.1,71.272c125.121-3.767,141.973,224.836,244.3,266.472S1281.514,33.27,1432.245,42.125c129.426,7.606,116.479,197.147,271.9,175.367,97.517-13.663,131.183-229.758,377.776-125.315" transform="translate(0 12.266)"/><path class="e" d="M0,163.937S122.35,11.224,240.29.779c49.933-4.422,94.888,10.46,135.6,32.83,88.5,48.767,156.616,137.285,213.325,152.613,47.581,12.819,95.213-30.285,147.053-69.83,38.624-29.338,79.377-55.948,123.977-55.937,122.542-.269,140.99,224.173,242.141,262.788,88.393,33.747,146.459-208.3,256.5-279.38,21.047-13.649,43.587-21.033,68.145-19.315,123.985,8.553,122.689,180.786,256.548,179.525a160.386,160.386,0,0,0,20.8-1.585c99.452-13.982,134.367-238.5,377.538-139.025" transform="translate(0 36.008)"/><path class="e" d="M0,157.343S121.054,13.821,239.135,1.146C287.921-4.092,332.091,9.218,372.211,29c87.133,43.207,154.5,125.476,210.862,139.022,47.36,11.3,94.561-30.041,145.931-67.5,38.327-27.951,78.6-52.081,122.381-50.8,119.958,3.512,140.088,223.4,239.979,259.1C1182.389,341.36,1238.354,95.1,1352.377,25.355c21.685-13.36,44.656-20.314,69.447-18.307,124.524,9.854,128.021,180.4,261.675,181.979a139.478,139.478,0,0,0,21.119-1.466c101.39-14.3,137.554-247.232,377.3-152.735" transform="translate(0 59.671)"/><path class="e" d="M0,164.414S119.735,30.13,237.977,15.18c47.634-6.021,91.03,5.688,130.558,22.873C454.294,75.7,520.916,151.723,576.93,163.482c47.137,9.771,93.956-29.738,144.813-65.175,38.063-26.521,77.828-48.273,120.785-45.661,117.362,7.137,139.255,222.507,237.817,255.421,93.711,31.293,147.669-218.893,265.52-287.549,22.354-13.022,45.725-19.6,70.749-17.3,125.06,11.154,133.346,182.423,266.8,184.433a138.293,138.293,0,0,0,21.438-1.346C1808.181,171.69,1845.595-69.666,2081.92,19.857" transform="translate(0 69.666)"/><path class="e" d="M0,184.026s118.4-125,236.823-142.273c46.477-6.779,89.134,3.206,128.035,17.891C449.326,91.53,515.12,161.508,570.79,171.482c46.915,8.247,93.353-29.436,143.691-62.846,37.8-25.091,77.048-44.467,119.188-40.523C948.428,78.861,972.151,289.624,1069.327,319.85c96.443,30,148.227-224.256,270.025-291.635,23-12.719,46.793-18.876,72.051-16.289,125.6,12.453,138.681,183.3,271.935,186.884a129.612,129.612,0,0,0,21.757-1.227c105.259-14.932,143.922-264.706,376.825-180.156" transform="translate(0 67.123)"/><path class="e" d="M0,203.831S117.054,88.166,235.668,68.523c45.319-7.506,87.2.8,125.512,12.911,83.1,26.277,148.147,90.058,203.47,98.244,46.69,6.723,92.754-29.127,142.57-60.517C744.767,95.5,783.487,78.492,824.812,83.78c112.152,14.343,137.765,220.409,233.495,248.051,99.222,28.656,148.777-229.627,274.533-295.719,23.64-12.422,47.862-18.16,73.356-15.284,126.131,13.755,144.016,184.222,277.062,189.338a122.71,122.71,0,0,0,22.074-1.1c107.2-15.251,147.108-273.445,376.589-193.869" transform="translate(0 64.384)"/><path class="e" d="M0,223.826S115.7,117.548,234.513,95.48c44.159-8.2,85.27-1.613,122.989,7.931,81.722,20.672,146.015,78.372,201.008,84.651,46.455,5.3,92.16-28.819,141.449-58.188,37.294-22.224,75.485-36.875,116-30.243C925.491,117.554,953.048,318.836,1047.286,344c102.042,27.245,149.318-235.013,279.041-299.8,24.281-12.128,48.922-17.388,74.658-14.276,126.636,15.312,149.354,185.172,282.189,191.792a117.032,117.032,0,0,0,22.4-.988c109.129-15.564,150.3-282.181,376.35-207.579" transform="translate(0 61.458)"/><path class="e" d="M0,243.994s114.333-96.831,233.355-121.381c43-8.872,83.338-4.017,120.468,2.948,80.34,15.076,143.9,66.58,198.546,71.06,46.235,3.792,91.574-28.506,140.327-55.859,37.047-20.786,74.7-33.086,114.4-25.105,106.916,21.491,136.463,217.91,229.169,240.687,104.9,25.769,149.856-240.406,283.549-303.891,24.919-11.831,49.991-16.664,75.959-13.269,127.169,16.633,154.695,186.16,287.319,194.246a111.979,111.979,0,0,0,22.715-.866c111.064-15.884,153.479-290.919,376.111-221.289" transform="translate(0 58.357)"/><path class="e" d="M0,264.336s112.971-87.324,232.2-114.42c41.844-9.51,81.4-6.421,117.945-2.032,78.952,9.48,141.787,54.782,196.084,57.469,46.013,2.273,90.991-28.189,139.206-53.533,36.8-19.345,73.914-29.305,112.8-19.967,104.3,25.039,135.863,216.522,227.01,237,107.788,24.22,150.384-245.808,288.054-307.974,25.558-11.539,51.057-15.945,77.262-12.261,127.7,17.946,160.036,187.176,292.449,196.7a107.328,107.328,0,0,0,23.031-.75c113-16.2,156.666-299.655,375.875-235" transform="translate(0 55.084)"/><path class="e" d="M0,284.84s111.61-77.753,231.046-107.46c40.689-10.118,79.454-8.816,115.424-7.009,77.553,3.9,139.672,42.982,193.619,43.876,45.794.758,90.414-27.864,138.084-51.2,36.561-17.9,73.125-25.527,111.208-14.829,101.675,28.569,135.294,215.048,224.847,233.319,110.708,22.588,150.908-251.224,292.563-312.057,26.193-11.251,52.125-15.226,78.563-11.256,128.232,19.256,165.374,188.222,297.579,199.154a103.551,103.551,0,0,0,23.351-.627c114.936-16.517,159.85-308.393,375.636-248.712" transform="translate(0 51.648)"/><path class="e" d="M0,305.5S110.261,237.386,229.891,205c39.537-10.7,77.509-11.212,112.9-11.989,76.151-1.679,137.559,31.179,191.156,30.282,45.575-.763,89.842-27.534,136.963-48.875,36.325-16.453,72.34-21.76,109.612-9.691,99.055,32.078,134.745,213.488,222.685,229.636,113.65,20.866,151.43-256.645,297.07-316.144,26.832-10.959,53.192-14.5,79.865-10.246,128.768,20.558,170.712,189.294,302.706,201.608a100.13,100.13,0,0,0,23.67-.511c116.873-16.833,163.037-317.129,375.4-262.419" transform="translate(0 48.059)"/><path class="e" d="M0,326.3S108.926,267.91,228.734,232.77c38.4-11.262,75.568-13.6,110.381-16.972,74.749-7.237,135.45,19.373,188.691,16.691,45.358-2.284,89.276-27.2,135.844-46.546,36.092-15,71.554-18,108.016-4.552,96.437,35.57,134.212,211.853,220.523,225.952,116.615,19.048,151.95-262.08,301.578-320.227,27.468-10.673,54.26-13.788,81.17-9.241,129.3,21.857,176.042,190.4,307.833,204.062a97.034,97.034,0,0,0,23.989-.389C1825.567,264.4,1872.979-44.32,2081.92,5.416" transform="translate(0 44.32)"/><path class="e" d="M0,347.252s107.613-48.595,227.579-86.569c37.258-11.795,73.622-15.984,107.857-21.952,73.347-12.789,133.337,7.564,186.229,3.1,45.139-3.811,88.715-26.851,134.722-44.217,35.862-13.538,70.774-14.246,106.419.588,93.828,39.04,133.69,210.141,218.36,222.266,119.594,17.127,152.463-267.521,306.087-324.31,28.1-10.39,55.329-13.072,82.472-8.233,129.834,23.148,181.374,191.52,312.963,206.515a94.337,94.337,0,0,0,24.308-.272C1827.74,276.7,1876.4-40.437,2081.92,4.324" transform="translate(0 40.437)"/><path class="e" d="M0,368.337s106.331-38.718,226.424-79.607c36.128-12.3,71.676-18.36,105.334-26.932,71.948-18.327,131.225-4.25,183.767-10.5,44.92-5.338,88.154-26.5,133.6-41.888,35.637-12.072,69.994-10.5,104.823,5.727,91.227,42.493,133.174,208.361,216.2,218.582,122.578,15.093,152.974-272.973,310.592-328.4,28.739-10.1,56.4-12.356,83.774-7.223,130.373,24.433,186.7,192.666,318.093,208.967a91.974,91.974,0,0,0,24.625-.15C1829.913,289.135,1879.824-36.422,2081.92,3.368" transform="translate(0 36.422)"/><path class="e" d="M0,389.552S105.081,360.8,225.269,316.906c35.007-12.783,69.736-20.727,102.814-31.909,70.555-23.853,129.11-16.067,181.3-24.086,44.7-6.87,87.6-26.135,132.479-39.562,35.412-10.6,69.22-6.757,103.227,10.865,88.637,45.93,132.657,206.515,214.038,214.9,125.573,12.938,153.487-278.433,315.1-332.48,29.372-9.824,57.475-11.695,85.076-6.218,130.958,25.461,192.023,193.838,323.222,211.423a89.793,89.793,0,0,0,24.944-.033c124.613-18.1,175.775-352.078,374.448-317.262" transform="translate(0 32.273)"/><path class="e" d="M0,410.895s103.877-18.7,224.112-65.683c33.9-13.246,67.8-23.1,100.293-36.892,69.17-29.366,126.994-27.881,178.84-37.677,44.478-8.405,87.046-25.76,131.358-37.233,35.19-9.113,68.451-3.023,101.631,16,86.061,49.35,132.135,204.611,211.876,211.218,128.562,10.651,154-283.9,319.608-336.569,30.007-9.541,58.544-10.976,86.377-5.208,131.5,26.76,197.339,195.029,328.349,213.874a87.7,87.7,0,0,0,25.266.089C1834.258,314.4,1886.669-28,2081.92,1.842" transform="translate(0 27.999)"/><path class="e" d="M0,432.353s102.722-8.553,222.957-58.719c32.806-13.688,65.869-25.461,97.77-41.872,67.8-34.879,124.879-39.7,176.378-51.271,44.256-9.94,86.494-25.374,130.237-34.9,34.968-7.62,67.687.705,100.035,21.141,83.5,52.756,131.605,202.646,209.713,207.534,131.549,8.23,154.506-289.381,324.116-340.652,30.643-9.263,59.612-10.257,87.68-4.2,132.032,28.062,202.651,196.242,333.479,216.331a85.9,85.9,0,0,0,25.583.205C1836.431,327.21,1890.095-23.608,2081.92,1.262" transform="translate(0 23.608)"/><path class="e" d="M0,453.931s101.631,1.691,221.8-51.757c31.726-14.11,63.943-27.823,95.246-46.852,66.433-40.384,122.736-51.623,173.915-64.864C534.976,278.9,576.9,265.481,620.079,257.88c34.746-6.115,66.93,4.43,98.439,26.282,80.954,56.151,131.061,200.628,207.554,203.851,134.517,5.666,154.931-295.155,328.621-344.735,31.262-9.038,60.681-9.541,88.981-3.2,132.568,29.361,207.956,197.469,338.609,218.782a84.247,84.247,0,0,0,25.9.328C1838.6,340.141,1893.518-19.1,2081.92.8" transform="translate(0 19.099)"/><path class="e" d="M0,475.619s100.609,12.034,220.647-44.795c30.66-14.518,62.019-30.182,92.723-51.834,65.078-45.886,120.621-63.427,171.45-78.455,43.79-13.08,85.386-24.567,128-30.249,34.524-4.6,66.18,8.147,96.843,31.423,78.43,59.532,130.509,202.13,205.391,200.164,137.451-3.609,155.461-300.582,333.129-348.822,31.9-8.747,61.747-8.822,90.286-2.187,133.1,30.663,213.255,198.715,343.736,221.239a82.67,82.67,0,0,0,26.218.444C1840.778,353.18,1896.94-14.478,2081.92.442" transform="translate(0 14.479)"/><path class="e" d="M0,497.409s99.668,22.485,219.49-37.83c29.616-14.909,60.145-32.495,90.205-56.814,63.818-51.287,118.5-75.235,168.985-92.049,43.568-14.6,84.829-24.142,126.875-27.92,34.3-3.078,65.439,11.864,95.247,36.561,75.924,62.907,129.953,198.907,203.229,196.48,140.31-4.644,155.991-306.012,337.637-352.9,32.539-8.461,62.816-8.1,91.588-1.18,133.64,31.962,218.549,199.975,348.863,223.69a81.305,81.305,0,0,0,26.541.566C1842.952,366.323,1900.363-9.755,2081.92.194" transform="translate(0 9.755)"/><path class="e" d="M0,519.306s98.819,33.033,218.335-30.871a426.878,426.878,0,0,0,87.682-61.791C368.464,369.8,422.4,339.6,472.54,321a406.123,406.123,0,0,1,125.753-25.594c34.066-1.543,64.751,15.528,93.65,41.7,73.553,66.152,129.3,194.29,201.066,192.8,143.272-2.981,156.522-311.438,342.146-356.988,33.177-8.172,63.884-7.387,92.89-.172,134.179,33.261,223.793,201.469,353.993,226.144a79.631,79.631,0,0,0,26.859.683c136.227-20,194.887-404.5,373.022-399.526" transform="translate(0 4.927)"/><path class="e" d="M0,541.3s148.741,66.266,302.339-90.677c113.962-116.443,200.472-142.5,288.693-142.5,119.364,0,192.925,240.115,290.961,235.951,146.109-6.2,157.049-316.868,346.651-361.074s295.089,197.724,453.315,229.433S1896.168,0,2081.92,0" transform="translate(0 0)"/></g><g transform="translate(0 115.528)"><path class="f" d="M2081.92,273.1s-106.328,108.024-269.495,122.139c-169.329,14.651-260.934-89.5-383.073-193.26S1252.389-23.229,1087.917,3.836c-145.89,24.009-322.29,346.143-466.35,355.314C374.513,374.881,283.374,37.147,0,134.3" transform="translate(0 0)"/><path class="f" d="M0,127.679c107.088-36.714,192.913-12.058,268.773,33.666,116.954,70.644,209.122,192.705,355.57,190.1,124.449-2.212,278.664-256.085,413.891-329.163,18.116-9.788,35.917-16.45,53.353-19.068C1226.179-17,1288.711,61.374,1376.6,146.758c18.121,17.5,37.139,34.954,57.913,51.657,106.536,85.822,188.12,166.454,317.474,174.668a378.963,378.963,0,0,0,61.145-1.388c161.84-16.07,268.784-113.576,268.784-113.576" transform="translate(0 11.173)"/><path class="f" d="M0,121.1c102.805-35.248,192.777-14.929,271.374,28.214C392.356,216,484.252,339.481,627.119,343.786,749.175,347.467,905.5,90.641,1041.854,20.556c18.1-9.3,35.9-15.539,53.406-17.918,132.6-18.007,196.489,59.118,285.822,142.484a752.78,752.78,0,0,0,58.6,49.775c106.628,81.223,186.588,151.714,313.54,156.058a421.655,421.655,0,0,0,60.623-2.759C1974.357,330.17,2081.92,243.18,2081.92,243.18" transform="translate(0 22.304)"/><path class="f" d="M0,114.574c98.522-33.78,192.639-17.8,273.975,22.765,125.012,62.721,216.706,187.673,355.919,198.84,119.733,9.6,278.078-250.219,415.577-317.3,18.074-8.816,35.881-14.632,53.458-16.764,130.586-15.845,195.989,59.946,286.633,141.421a675.589,675.589,0,0,0,59.288,47.9c106.722,76.62,185.161,141.384,309.61,137.445,19.017-.6,39-1.532,60.1-4.13,159.181-19.981,267.362-96.454,267.362-96.454" transform="translate(0 33.381)"/><path class="f" d="M0,108.1c94.239-32.309,192.5-20.664,276.576,17.316,129.04,58.757,220.6,185.246,356.094,203.209C750.146,344.2,910.415,81.313,1049.088,17.257c18.049-8.339,35.862-13.73,53.514-15.614,128.557-13.721,195.5,60.767,287.438,140.363a606.367,606.367,0,0,0,59.979,46.016c106.811,72.02,183.645,122.059,305.673,118.836,18.909-.5,38.7-2.668,59.573-5.5,157.854-21.935,266.654-87.893,266.654-87.893" transform="translate(0 44.404)"/><path class="f" d="M0,101.68c89.956-30.84,192.367-23.528,279.177,11.867,133.071,54.8,224.559,182.9,356.269,207.579C750.727,342.73,912.83,76.7,1052.705,15.685c18.021-7.861,35.837-12.827,53.567-14.46C1232.788-10.419,1301.3,62.8,1394.52,140.526a554.161,554.161,0,0,0,60.664,44.139c107.066,67.16,182.232,107.136,301.74,100.226,18.8-1.088,38.4-3.8,59.051-6.876,156.527-23.889,265.944-79.332,265.944-79.332" transform="translate(0 55.374)"/><path class="f" d="M0,95.318c85.672-29.372,192.228-26.4,281.778,6.418,137.1,50.835,228.567,180.636,356.444,211.948,113.134,27.7,277-241.561,418.1-299.508,17.988-7.389,35.812-11.934,53.622-13.31C1234.4-8.745,1304.509,63.245,1399,139.108a499.453,499.453,0,0,0,61.353,42.257c107.177,62.513,180.847,92.146,297.807,81.617,18.7-1.682,38.1-4.891,58.53-8.247,155.253-25.51,265.233-70.768,265.233-70.768" transform="translate(0 66.286)"/><path class="f" d="M0,89.016c81.389-27.906,192.153-29.455,284.379.966C425.6,136.567,516.993,268.461,641,306.3c111.033,33.883,276.59-238.721,418.941-293.578A179.8,179.8,0,0,1,1113.614.565C1236-7.06,1307.732,63.736,1403.475,137.747a450.706,450.706,0,0,0,62.041,40.375c107.28,57.866,179.49,77.081,293.873,63.007,18.6-2.287,37.805-6.021,58.008-9.621C1971.332,204.083,2081.92,169.3,2081.92,169.3" transform="translate(0 77.14)"/><path class="f" d="M0,82.775C77.1,56.34,192.014,50.439,286.98,78.292c145.249,42.6,236.684,176.43,356.794,220.686,108.957,40.148,276.16-235.912,419.782-287.646A183.245,183.245,0,0,1,1117.286.325c120.3-5.679,193.68,63.957,290.669,136.122a407.416,407.416,0,0,0,62.727,38.5c107.38,53.222,178.154,61.939,289.94,44.4,18.5-2.9,37.505-7.151,57.486-11C1970.724,179,2081.92,154.7,2081.92,154.7" transform="translate(0 87.931)"/><path class="f" d="M0,76.6C72.82,51.629,191.873,41.38,289.581,66.663c149.271,38.624,240.759,174.5,356.969,225.056C753.441,338.226,922.257,58.588,1067.176,10A186.977,186.977,0,0,1,1120.956.15c118.217-3.786,193.255,64.726,291.477,135.061a369.5,369.5,0,0,0,63.415,36.617c107.472,48.584,176.83,46.715,286.009,25.788,18.407-3.528,37.2-8.283,56.961-12.367,151.3-31.273,263.1-45.083,263.1-45.083" transform="translate(0 98.66)"/><path class="f" d="M0,71.14c68.537-23.5,191.728-38.088,292.182-15.381C445.473,90.411,537,228.431,649.326,285.184,754.144,338.148,924.561,54.8,1070.793,9.4c17.83-5.538,35.742-7.345,53.836-8.7,115.807-8.689,192.835,65.489,292.285,134a335.98,335.98,0,0,0,64.1,34.74c107.561,43.948,175.515,31.409,282.076,7.176,18.318-4.167,36.9-9.413,56.437-13.738,149.984-33.208,262.394-36.522,262.394-36.522" transform="translate(0 108.665)"/><path class="f" d="M0,64.913c64.254-22.029,191.587-40.958,294.783-20.83C452.093,74.768,543.636,215.036,652.1,277.877,754.821,337.392,926.849,50.209,1074.41,8.021,1092.192,2.938,1110.1,1.6,1128.3.473c113.795-7.065,192.43,66.236,293.092,132.94a306.759,306.759,0,0,0,64.789,32.858c107.644,39.323,174.2,16.025,278.142-11.434,18.229-4.816,36.6-10.543,55.915-15.109C1968.9,104.583,2081.92,111.77,2081.92,111.77" transform="translate(0 119.442)"/><path class="f" d="M0,58.725C59.97,38.164,191.442,14.9,297.384,32.443,458.714,59.164,550.226,201.776,654.878,270.606,755.457,336.762,929.119,45.618,1078.027,6.683c17.735-4.639,35.648-5.513,53.944-6.4,111.785-5.4,192.03,66.977,293.9,131.88a281.021,281.021,0,0,0,65.48,30.979c107.719,34.7,172.872.561,274.206-30.041,18.138-5.48,36.3-11.678,55.393-16.483,147.347-37.089,260.972-19.4,260.972-19.4" transform="translate(0 130.182)"/><path class="f" d="M0,52.574C55.687,33.481,191.3,5.88,299.985,20.842,465.334,43.6,556.755,188.637,657.654,263.375,756.037,336.25,931.379,41.023,1081.644,5.381c17.685-4.194,35.6-4.628,54-5.244,109.784-3.686,191.639,67.7,294.708,130.819a258.417,258.417,0,0,0,66.166,29.1c107.794,30.085,171.534-14.984,270.272-48.653,18.046-6.154,36.006-12.811,54.871-17.854,146.029-39.04,260.262-10.837,260.262-10.837" transform="translate(0 140.884)"/><path class="f" d="M0,46.7C51.4,29.078,191.129-2.634,302.586,9.521c169.33,19.14,260.629,166.326,357.843,246.9,96.116,79.668,273.2-219.754,424.831-252.062A210.453,210.453,0,0,1,1139.313.267C1247,5.3,1330.566,68.684,1434.826,130.026a238.726,238.726,0,0,0,66.855,27.22c107.866,25.477,170.173-30.6,266.339-67.263,17.949-6.843,35.7-13.946,54.349-19.226,144.7-40.994,259.551-2.276,259.551-2.276" transform="translate(0 151.305)"/><path class="f" d="M0,44.222C47.118,28.066,190.993-7.981,305.187,1.593,478.547,16.771,569.6,166.5,663.205,252.864c93.775,86.519,272.662-217.2,425.672-246.133a216.2,216.2,0,0,1,54.1-2.94c105.578,6.662,190.876,69.12,296.324,128.7,23.717,13.4,46.094,21.191,67.54,25.341,107.935,20.878,168.783-46.291,262.408-85.875,17.846-7.545,35.4-15.079,53.824-20.6C1966.463,8.4,2081.92,57.644,2081.92,57.644" transform="translate(0 158.334)"/><path class="f" d="M0,48.885C42.835,34.2,190.857-6.186,307.788.806,485.176,12.024,575.909,164.34,665.981,256.447,757.331,349.861,938.1,41.759,1092.5,16.246c17.53-2.9,35.5-3.278,54.158-1.79,103.471,8.253,190.5,69.811,297.128,127.638,24.134,13.088,46.729,20.22,68.229,23.462,108,16.286,167.356-62.044,258.475-104.482,17.735-8.261,35.1-16.217,53.3-21.974C1965.847-5.823,2081.92,53.951,2081.92,53.951" transform="translate(0 158.222)"/><path class="f" d="M0,53.835C38.552,40.616,190.718-4.106,310.389.3,491.8,7.561,582.138,162.486,668.757,260.314,757.6,360.654,940.34,48.095,1096.114,26.043c17.48-2.473,35.462-2.448,54.211-.636,101.373,9.8,190.135,70.488,297.939,126.578,24.547,12.772,47.36,19.248,68.914,21.58,108.074,11.706,165.885-77.858,254.542-123.091,17.619-8.988,34.8-17.352,52.778-23.345C1965.23-19.768,2081.92,50.54,2081.92,50.54" transform="translate(0 157.824)"/><path class="f" d="M0,59.327C34.268,47.577,190.582-1.482,312.99.348c185.446,3.295,275.3,160.838,358.543,264.379,86.247,107.283,271.038-209.8,428.2-228.339,17.427-2.057,35.434-1.632,54.266.513,99.283,11.314,189.768,71.157,298.744,125.518,24.967,12.455,48,18.279,69.6,19.7,108.144,7.131,164.366-93.722,250.608-141.7,17.491-9.729,34.5-18.49,52.256-24.717,139.4-48.878,256.711,31.973,256.711,31.973" transform="translate(0 156.881)"/><path class="f" d="M0,75.948C29.985,65.666,190.443,12.274,315.591,11.519c189.474-.669,278.783,159.492,358.718,268.748,83.574,114.234,270.5-207.423,429.039-222.41,17.377-1.643,35.407-.819,54.319,1.668,97.2,12.786,189.407,71.812,299.552,124.457,25.385,12.133,48.631,17.308,70.294,17.821,108.213,2.565,162.792-109.631,246.672-160.313,17.349-10.482,34.2-19.628,51.734-26.088,138.07-50.863,256,40.534,256,40.534" transform="translate(0 144.81)"/><path class="f" d="M0,92.665c25.7-8.811,190.307-66.541,318.192-69.878,193.5-4.63,282.2,158.131,358.892,273.117,80.826,121.179,269.97-205.094,429.881-216.478,17.327-1.235,35.382-.019,54.374,2.817,95.135,14.221,189.047,72.456,300.36,123.4,25.8,11.809,49.264,16.344,70.98,15.945,108.288-1.993,161.166-125.578,242.738-178.923,17.2-11.245,33.9-20.769,51.212-27.462C1963.362-37.654,2081.92,64.3,2081.92,64.3" transform="translate(0 132.642)"/><path class="f" d="M0,109.456c21.419-7.342,190.168-69.408,320.793-75.327,197.532-8.591,285.551,156.755,359.067,277.487C757.872,439.732,949.311,108.8,1110.582,101.068c17.277-.827,35.359.772,54.427,3.972,93.084,15.617,188.691,73.086,301.168,122.336,26.224,11.481,49.9,15.376,71.668,14.063,108.368-6.54,159.478-141.551,238.8-197.532C1793.68,31.89,1810.244,22,1827.34,15.073c135.391-54.854,254.579,57.658,254.579,57.658" transform="translate(0 120.401)"/><path class="f" d="M0,126.4c17.136-5.877,190.032-72.279,323.394-80.778,201.56-12.553,288.851,155.353,359.242,281.856C757.775,462.515,951.576,126.9,1114.2,122.865c17.23-.43,35.34,1.552,54.483,5.122,91.047,16.986,188.334,73.711,301.976,121.276,26.643,11.154,50.535,14.415,72.354,12.183C1651.462,250.364,1700.74,103.9,1777.885,45.3c16.847-12.8,33.275-23.079,50.166-30.2,133.937-57.117,253.869,66.219,253.869,66.219" transform="translate(0 108.006)"/><path class="f" d="M0,143.276c12.85-4.405,189.893-75.146,326-86.227C531.586,40.535,618.1,210.969,685.412,343.274,757.619,485.2,953.889,147.726,1117.819,144.587c17.177-.328,35.323,2.323,54.532,6.276,89.034,18.315,187.978,74.319,302.784,120.216,27.062,10.818,51.173,13.452,73.042,10.3,108.543-15.62,155.919-173.549,230.941-234.752,16.65-13.585,32.975-24.217,49.641-31.579,132.613-59.071,253.161,74.78,253.161,74.78" transform="translate(0 95.683)"/><path class="f" d="M0,160.186c8.566-2.937,189.757-78.011,328.6-91.677C538.215,48.031,623.915,220.967,688.188,359.1c69.234,148.8,267.971-196.245,433.247-192.755,17.138.361,35.315,3.084,54.588,7.425,87.038,19.62,187.623,74.919,303.589,119.155,27.484,10.484,51.821,12.522,73.731,8.425,108.668-20,154.048-189.557,227.007-253.361,16.439-14.379,32.675-25.349,49.12-32.95,131.283-61.025,252.45,83.341,252.45,83.341" transform="translate(0 83.324)"/><path class="f" d="M0,177.127C4.283,175.658,189.621,96.248,331.2,80c213.649-24.439,298.5,150.964,359.767,294.964C757.183,530.6,958.483,180.821,1125.053,188.139c17.1.752,35.312,3.834,54.641,8.58,85.07,20.891,187.318,75.368,304.4,118.095,27.914,10.113,52.456,11.545,74.416,6.546,108.76-24.6,152.113-205.563,223.074-271.974,16.214-15.173,32.372-26.482,48.6-34.324,129.953-62.977,251.74,91.9,251.74,91.9" transform="translate(0 70.932)"/><path class="f" d="M0,194.092S189.482,110.346,333.8,91.517C551.476,63.117,635.446,240.951,693.74,390.85,756.914,553.3,960.826,198.766,1128.67,209.956c90.225,6.013,214.024,76.268,359.9,126.764,168.405,58.294,211.268-202.937,294.245-285.917,144.347-144.346,299.105,64.773,299.105,64.773" transform="translate(0 58.517)"/></g></g></g></svg>