<svg xmlns="http://www.w3.org/2000/svg" width="20.613" height="20.613" viewBox="0 0 20.613 20.613"><defs><style>.a{fill:#59c36a;}.b{fill:#00a66c;}.c{fill:#ffda2d;}.d{fill:#4086f4;}.e{fill:#4175df;}.f{fill:#ff641a;}.g{fill:#f03800;}</style></defs><path class="a" d="M51.872,301.556A10.192,10.192,0,0,1,36.4,298.935l.669-3.085,2.966-.551a5.473,5.473,0,0,0,5.206,3.853,5.357,5.357,0,0,0,3.189-1.039l2.85.435Z" transform="translate(-34.935 -283.411)"/><path class="b" d="M262.631,368.642l-.592-3.007-2.85-.435A5.357,5.357,0,0,1,256,366.239v4.871A10.291,10.291,0,0,0,262.631,368.642Z" transform="translate(-245.694 -350.497)"/><g transform="translate(0 5.089)"><g transform="translate(0)"><path class="c" d="M4.871,131.618A5.629,5.629,0,0,0,5.1,133.2l-3.635,3.635a10.021,10.021,0,0,1,0-10.435l2.918.5.718,3.133A5.628,5.628,0,0,0,4.871,131.618Z" transform="translate(0 -126.4)"/></g></g><path class="d" d="M251.91,198.416a10.29,10.29,0,0,1-3.676,7.839l-3.442-3.442a5.343,5.343,0,0,0,1.679-1.981H241.6a.6.6,0,0,1-.6-.6V196.6a.6.6,0,0,1,.6-.6h9.533a.6.6,0,0,1,.592.5,10.241,10.241,0,0,1,.181,1.92Z" transform="translate(-231.297 -188.109)"/><path class="e" d="M260.867,200.831a5.344,5.344,0,0,1-1.679,1.981l3.442,3.442a10.208,10.208,0,0,0,3.494-9.759.6.6,0,0,0-.592-.5H256v4.831Z" transform="translate(-245.694 -188.109)"/><path class="f" d="M52.041,2.878a.609.609,0,0,1-.169.447L49.287,5.9a.591.591,0,0,1-.785.06,5.4,5.4,0,0,0-3.261-1.087,5.473,5.473,0,0,0-5.206,3.853L36.4,5.089A10.186,10.186,0,0,1,51.823,2.432a.635.635,0,0,1,.217.447Z" transform="translate(-34.935 0)"/><path class="g" d="M259.261,5.958a.591.591,0,0,0,.785-.06l2.585-2.573a.609.609,0,0,0,.169-.447.635.635,0,0,0-.217-.447A10.276,10.276,0,0,0,256,0V4.871A5.4,5.4,0,0,1,259.261,5.958Z" transform="translate(-245.694 0)"/></svg>