<svg xmlns="http://www.w3.org/2000/svg" xmlns:xlink="http://www.w3.org/1999/xlink" width="175.401" height="51" viewBox="0 0 175.401 51"><defs><style>.a{fill:#fff;}.b{fill:#299bd7;}.b,.c,.d{mix-blend-mode:multiply;isolation:isolate;}.c{fill:url(#a);}.d{fill:#2a9cd7;}</style><linearGradient id="a" x1="0.5" y1="0.013" x2="0.5" y2="0.987" gradientUnits="objectBoundingBox"><stop offset="0" stop-color="#3bb3e7"/><stop offset="1" stop-color="#0066b2"/></linearGradient></defs><g transform="translate(-84.688 -180.884)"><g transform="translate(84.688 192.577)"><g transform="translate(0 0)"><path class="a" d="M195.1,432.88a10.423,10.423,0,0,1-2.6-.273,3.7,3.7,0,0,1-1.665-.874,3.317,3.317,0,0,1-.884-1.573,9.4,9.4,0,0,1-.26-2.393v-9.789h3.184v9.68a4.037,4.037,0,0,0,.135,1.147,1.669,1.669,0,0,0,.427.732,1.58,1.58,0,0,0,.78.393,5.57,5.57,0,0,0,1.2.109h4.766a5.574,5.574,0,0,0,1.2-.109,1.583,1.583,0,0,0,.78-.393,1.676,1.676,0,0,0,.427-.743,4.178,4.178,0,0,0,.135-1.158v-9.658h3.143v9.789a9.4,9.4,0,0,1-.26,2.393,3.317,3.317,0,0,1-.884,1.573,3.7,3.7,0,0,1-1.665.874,10.527,10.527,0,0,1-2.622.273Z" transform="translate(-189.688 -417.104)"/><path class="a" d="M272.031,441.547v-6.6a5.281,5.281,0,0,0-.115-1.213,1.51,1.51,0,0,0-.4-.743,1.571,1.571,0,0,0-.77-.382,5.831,5.831,0,0,0-1.238-.109h-3.371a5.707,5.707,0,0,0-1.218.109,1.639,1.639,0,0,0-.78.382,1.466,1.466,0,0,0-.406.743,5.285,5.285,0,0,0-.114,1.213v6.6h-3.1v-6.708a9.516,9.516,0,0,1,.26-2.4,3.321,3.321,0,0,1,.884-1.584,3.7,3.7,0,0,1,1.665-.874,10.454,10.454,0,0,1,2.6-.273H269.7a10.559,10.559,0,0,1,2.622.273,3.7,3.7,0,0,1,1.665.874,3.321,3.321,0,0,1,.885,1.584,9.541,9.541,0,0,1,.26,2.4v6.708Z" transform="translate(-242.044 -425.771)"/><path class="a" d="M326.756,417.883a1.138,1.138,0,0,1-.822-.24,1.049,1.049,0,0,1-.239-.765V415.61a1.009,1.009,0,0,1,.239-.754,1.173,1.173,0,0,1,.822-.23h1.02a1.21,1.21,0,0,1,.843.23,1.01,1.01,0,0,1,.239.754v1.267a1.051,1.051,0,0,1-.239.765,1.174,1.174,0,0,1-.843.24ZM325.7,430.4V418.866h3.163V430.4Z" transform="translate(-290.213 -414.627)"/><path class="a" d="M359.781,438.4a6.372,6.372,0,0,1-.146,1.475,1.82,1.82,0,0,1-.572.972,2.6,2.6,0,0,1-1.165.535,9.18,9.18,0,0,1-1.925.164h-9.7v-2.556h9.3a1.339,1.339,0,0,0,.874-.219,1.079,1.079,0,0,0,.25-.83v-.393q0-.655-.24-.819a1.472,1.472,0,0,0-.8-.164h-6.326a5.038,5.038,0,0,1-1.55-.2,2,2,0,0,1-.926-.59,2.1,2.1,0,0,1-.447-.972,7.14,7.14,0,0,1-.114-1.366v-.9a4.817,4.817,0,0,1,.156-1.311,1.93,1.93,0,0,1,.51-.885,2.1,2.1,0,0,1,.957-.491,6.326,6.326,0,0,1,1.519-.153h4.287v2.469h-3.538a.984.984,0,0,0-.655.175.822.822,0,0,0-.2.634v.546a.924.924,0,0,0,.187.677.866.866,0,0,0,.6.175h6.118a6.975,6.975,0,0,1,1.769.186,2.328,2.328,0,0,1,1.082.59,2.138,2.138,0,0,1,.541,1.048,7.329,7.329,0,0,1,.146,1.584Z" transform="translate(-305.425 -425.771)"/><path class="a" d="M409.1,441.547a7.747,7.747,0,0,1-2.019-.218,3.2,3.2,0,0,1-1.259-.623,2.149,2.149,0,0,1-.656-.983,4.206,4.206,0,0,1-.187-1.3v-1.114a4.529,4.529,0,0,1,.177-1.322,2.185,2.185,0,0,1,.614-.983,2.838,2.838,0,0,1,1.2-.612,7.473,7.473,0,0,1,1.925-.207h8.345v-.262a2,2,0,0,0-.437-1.519,2.248,2.248,0,0,0-1.477-.382h-3.08V429.7h3.08a8.724,8.724,0,0,1,2.3.262,3.839,3.839,0,0,1,1.55.8,3.128,3.128,0,0,1,.884,1.355,6.052,6.052,0,0,1,.281,1.955v2.885a8.328,8.328,0,0,1-.239,2.163,2.93,2.93,0,0,1-.833,1.42,3.42,3.42,0,0,1-1.581.776,11.244,11.244,0,0,1-2.487.23Zm8.137-5.353H409.23a1.324,1.324,0,0,0-.853.251,1.174,1.174,0,0,0-.312.95v.809a1.01,1.01,0,0,0,.333.874,1.576,1.576,0,0,0,.937.24h5.827a4.381,4.381,0,0,0,.937-.087,1.37,1.37,0,0,0,.645-.316,1.4,1.4,0,0,0,.375-.645,3.816,3.816,0,0,0,.125-1.071Z" transform="translate(-348.818 -425.771)"/><path class="a" d="M473.93,417.883a1.138,1.138,0,0,1-.822-.24,1.049,1.049,0,0,1-.239-.765V415.61a1.008,1.008,0,0,1,.239-.754,1.172,1.172,0,0,1,.822-.23h1.02a1.21,1.21,0,0,1,.843.23,1.01,1.01,0,0,1,.239.754v1.267a1.051,1.051,0,0,1-.239.765,1.174,1.174,0,0,1-.843.24Zm-1.061,12.52V418.866h3.163V430.4Z" transform="translate(-398.993 -414.627)"/><path class="a" d="M499.418,441.547a10.422,10.422,0,0,1-2.6-.273,3.694,3.694,0,0,1-1.665-.874,3.315,3.315,0,0,1-.884-1.573,9.388,9.388,0,0,1-.26-2.393v-1.6a9.518,9.518,0,0,1,.26-2.4,3.319,3.319,0,0,1,.884-1.584,3.7,3.7,0,0,1,1.665-.874,10.459,10.459,0,0,1,2.6-.273h8.158v2.8h-8.054a5.411,5.411,0,0,0-1.2.109,1.346,1.346,0,0,0-1.113,1.136,5.77,5.77,0,0,0-.1,1.2v1.4a5.479,5.479,0,0,0,.1,1.169,1.544,1.544,0,0,0,.375.754,1.5,1.5,0,0,0,.739.4,4.923,4.923,0,0,0,1.2.12H507.6v2.753Z" transform="translate(-414.616 -425.771)"/><path class="a" d="M559.724,441.547a10.419,10.419,0,0,1-2.6-.273,3.694,3.694,0,0,1-1.665-.874,3.317,3.317,0,0,1-.884-1.573,9.389,9.389,0,0,1-.26-2.393v-1.6a9.519,9.519,0,0,1,.26-2.4,3.322,3.322,0,0,1,.884-1.584,3.7,3.7,0,0,1,1.665-.874,10.457,10.457,0,0,1,2.6-.273h3.767a10.559,10.559,0,0,1,2.622.273,3.646,3.646,0,0,1,1.665.885,3.394,3.394,0,0,1,.885,1.6,9.553,9.553,0,0,1,.26,2.4v1.573a9.42,9.42,0,0,1-.26,2.393,3.317,3.317,0,0,1-.885,1.573,3.694,3.694,0,0,1-1.665.874,10.521,10.521,0,0,1-2.622.273Zm6.1-6.6a5.425,5.425,0,0,0-.115-1.224,1.437,1.437,0,0,0-.416-.754,1.674,1.674,0,0,0-.843-.371,7.881,7.881,0,0,0-1.373-.1H560.14a7.694,7.694,0,0,0-1.363.1,1.664,1.664,0,0,0-.833.371,1.433,1.433,0,0,0-.416.754,5.426,5.426,0,0,0-.115,1.224v1.4a5.273,5.273,0,0,0,.115,1.213,1.426,1.426,0,0,0,.416.743,1.737,1.737,0,0,0,.833.382,6.946,6.946,0,0,0,1.363.109h2.935a7.114,7.114,0,0,0,1.373-.109,1.746,1.746,0,0,0,.843-.382,1.43,1.43,0,0,0,.416-.743,5.273,5.273,0,0,0,.115-1.213Z" transform="translate(-459.189 -425.771)"/></g><g transform="translate(0.232 20.963)"><path class="a" d="M195.284,495.824l-2,2.882v2.064h-.7v-2.064l-2.005-2.882h.878l1.168,1.734.3.531h.011l.3-.537,1.18-1.728Z" transform="translate(-190.576 -495.604)"/><path class="a" d="M209.985,503.772a1.993,1.993,0,1,1,1.8-1.984A1.755,1.755,0,0,1,209.985,503.772Zm0-3.328c-.791,0-1.122.574-1.122,1.343s.337,1.344,1.122,1.344,1.122-.58,1.122-1.344S210.77,500.444,209.985,500.444Z" transform="translate(-203.59 -498.545)"/><path class="a" d="M228.436,503.884h-.68v-.415h-.012a1.441,1.441,0,0,1-1.1.476,1.361,1.361,0,0,1-1.523-1.533v-2.375h.68v2.351c0,.519.145.916.924.916a.94.94,0,0,0,1.029-1v-2.272h.68Z" transform="translate(-216.11 -498.718)"/><path class="a" d="M243.815,500.6H243.6c-.61-.006-1.081.348-1.081,1.264v1.9h-.68v-3.847h.68v.616h.012a1.228,1.228,0,0,1,1.128-.659h.157Z" transform="translate(-228.465 -498.597)"/><path class="a" d="M261.057,500.77h-2.279v-4.946h2.232a1.349,1.349,0,0,1,1.5,1.368,1.081,1.081,0,0,1-.494.977v.012a1.156,1.156,0,0,1,.7,1.154C262.714,500.22,262.126,500.77,261.057,500.77Zm-.1-4.268h-1.546l.07.073v1.239l-.07.074h1.546c.634,0,.843-.311.843-.7C261.8,496.734,261.528,496.5,260.952,496.5Zm.1,2.064h-1.651l.07.074v1.38l-.07.073h1.651c.7,0,.942-.275.942-.757S261.725,498.565,261.057,498.565Z" transform="translate(-240.985 -495.604)"/><path class="a" d="M280.079,503.884h-.68v-.415h-.012a1.441,1.441,0,0,1-1.1.476,1.361,1.361,0,0,1-1.523-1.533v-2.375h.68v2.351c0,.519.145.916.924.916a.94.94,0,0,0,1.029-1v-2.272h.68Z" transform="translate(-254.28 -498.718)"/><path class="a" d="M294.365,503.778a2.225,2.225,0,0,1-1.663-.684l.465-.495a1.613,1.613,0,0,0,1.18.537c.645,0,.872-.263.872-.489,0-.189-.093-.336-.593-.47-.075-.018-.57-.165-.651-.189-.639-.183-1.168-.452-1.168-1.081,0-.6.512-1.105,1.517-1.105a1.942,1.942,0,0,1,1.494.653l-.465.489a1.271,1.271,0,0,0-1.029-.5c-.628,0-.831.268-.831.446,0,.208.209.317.756.47.076.025.506.159.587.177.744.208,1.07.562,1.07,1.087C295.905,503.216,295.452,503.778,294.365,503.778Z" transform="translate(-266.059 -498.545)"/><path class="a" d="M308.377,495.885a.454.454,0,1,1,.407-.452A.406.406,0,0,1,308.377,495.885Zm.337,4.262h-.68V496.3h.68Z" transform="translate(-277.344 -494.981)"/><path class="a" d="M318.194,503.711h-.68v-2.32c0-.556-.157-.947-.948-.947a.958.958,0,0,0-1.052,1v2.271h-.68v-3.847h.68v.415h.012a1.517,1.517,0,0,1,1.122-.476,1.387,1.387,0,0,1,1.546,1.477Z" transform="translate(-282.418 -498.545)"/><path class="a" d="M334.424,502.1h-2.947l.07.074a1.056,1.056,0,0,0,1.134.964,1.361,1.361,0,0,0,.994-.434l.465.489a2.026,2.026,0,0,1-1.459.58,1.749,1.749,0,0,1-1.843-1.954,1.8,1.8,0,0,1,1.814-2.015c1.215,0,1.79.867,1.79,2.015A2.389,2.389,0,0,1,334.424,502.1Zm-.622-.623-.07-.073a1.038,1.038,0,0,0-1.081-.965,1.059,1.059,0,0,0-1.093.965l-.075.073Z" transform="translate(-294.246 -498.545)"/><path class="a" d="M348.771,503.778a2.226,2.226,0,0,1-1.663-.684l.465-.495a1.614,1.614,0,0,0,1.18.537c.645,0,.872-.263.872-.489,0-.189-.093-.336-.593-.47-.076-.018-.57-.165-.651-.189-.639-.183-1.169-.452-1.169-1.081,0-.6.512-1.105,1.517-1.105a1.942,1.942,0,0,1,1.494.653l-.465.489a1.27,1.27,0,0,0-1.029-.5c-.628,0-.831.268-.831.446,0,.208.209.317.756.47.075.025.506.159.587.177.744.208,1.07.562,1.07,1.087C350.311,503.216,349.858,503.778,348.771,503.778Z" transform="translate(-306.272 -498.545)"/><path class="a" d="M363.5,503.778a2.225,2.225,0,0,1-1.663-.684l.465-.495a1.613,1.613,0,0,0,1.18.537c.645,0,.872-.263.872-.489,0-.189-.093-.336-.593-.47-.075-.018-.57-.165-.651-.189-.639-.183-1.168-.452-1.168-1.081,0-.6.512-1.105,1.517-1.105a1.943,1.943,0,0,1,1.494.653l-.465.489a1.271,1.271,0,0,0-1.029-.5c-.628,0-.831.268-.831.446,0,.208.209.317.756.47.076.025.506.159.587.177.744.208,1.07.562,1.07,1.087C365.044,503.216,364.591,503.778,363.5,503.778Z" transform="translate(-317.161 -498.545)"/><path class="a" d="M385.565,500.58a1.7,1.7,0,0,1-1.111.458c-.7,0-1.11-.47-1.11-1.252V497.82l.041-.074h-.459v-.616h.459l-.041-.073v-.568l.68-.385v.953l-.035.073h1.151v.616H383.99l.035.074v1.972c0,.4.18.6.459.6a.852.852,0,0,0,.628-.293Z" transform="translate(-332.746 -495.811)"/><path class="a" d="M397.842,503.728h-.68v-.293h-.012a1.7,1.7,0,0,1-1.11.36c-.744,0-1.569-.293-1.569-1.215,0-1.2,1.494-1.276,2.418-1.276.093,0,.273.006.343.012l-.07-.073c-.006-.013,0-.067-.006-.074-.035-.513-.425-.7-.93-.7a1.66,1.66,0,0,0-1.11.367l-.448-.483a2.294,2.294,0,0,1,1.558-.525c.8,0,1.616.324,1.616,1.422Zm-.61-1.8c-.064,0-.226-.012-.314-.012-.169,0-.372,0-.581.012a3.385,3.385,0,0,0-.622.092c-.349.091-.57.262-.57.555,0,.458.529.574.9.574.343,0,1.122-.08,1.122-.574v-.574Z" transform="translate(-341.279 -498.563)"/><path class="a" d="M414.052,499.864v3.48a1.528,1.528,0,0,1-1.732,1.679,2.4,2.4,0,0,1-1.569-.55l.459-.488a1.849,1.849,0,0,0,1.11.4.939.939,0,0,0,1.052-1.038v-.318h-.011a1.454,1.454,0,0,1-1.1.427,1.63,1.63,0,0,1-1.744-1.814,1.688,1.688,0,0,1,1.738-1.838,1.45,1.45,0,0,1,1.1.452h.011v-.391Zm-1.755.58a1.06,1.06,0,0,0-1.1,1.2,1.112,1.112,0,1,0,2.221,0A1.071,1.071,0,0,0,412.3,500.444Z" transform="translate(-353.139 -498.545)"/><path class="a" d="M428.761,500.251h-.68v-5.129h.68Z" transform="translate(-366.121 -495.085)"/><path class="a" d="M434.861,495.885a.455.455,0,1,1,.407-.452A.406.406,0,0,1,434.861,495.885Zm.337,4.262h-.68V496.3h.68Z" transform="translate(-370.831 -494.981)"/><path class="a" d="M444.68,503.711H444v-2.32c0-.556-.157-.947-.948-.947a.958.958,0,0,0-1.052,1v2.271h-.68v-3.847H442v.415h.012a1.517,1.517,0,0,1,1.122-.476,1.387,1.387,0,0,1,1.546,1.477Z" transform="translate(-375.906 -498.545)"/><path class="a" d="M460.909,502.1h-2.947l.07.074a1.056,1.056,0,0,0,1.133.964,1.362,1.362,0,0,0,.994-.434l.465.489a2.025,2.025,0,0,1-1.459.58,1.749,1.749,0,0,1-1.843-1.954,1.8,1.8,0,0,1,1.814-2.015c1.215,0,1.79.867,1.79,2.015A2.407,2.407,0,0,1,460.909,502.1Zm-.622-.623-.07-.073a1.038,1.038,0,0,0-1.081-.965,1.059,1.059,0,0,0-1.093.965l-.076.073Z" transform="translate(-387.733 -498.545)"/><path class="a" d="M484.036,499.864v3.48a1.528,1.528,0,0,1-1.732,1.679,2.4,2.4,0,0,1-1.569-.55l.459-.488a1.848,1.848,0,0,0,1.11.4.939.939,0,0,0,1.052-1.038v-.318h-.012a1.452,1.452,0,0,1-1.1.427,1.63,1.63,0,0,1-1.744-1.814,1.688,1.688,0,0,1,1.738-1.838,1.448,1.448,0,0,1,1.1.452h.012v-.391Zm-1.755.58a1.06,1.06,0,0,0-1.1,1.2,1.112,1.112,0,1,0,2.221,0A1.071,1.071,0,0,0,482.281,500.444Z" transform="translate(-404.866 -498.545)"/><path class="a" d="M499.086,503.772a1.993,1.993,0,1,1,1.8-1.984A1.755,1.755,0,0,1,499.086,503.772Zm0-3.328c-.79,0-1.122.574-1.122,1.343s.337,1.344,1.122,1.344,1.122-.58,1.122-1.344S499.871,500.444,499.086,500.444Z" transform="translate(-417.27 -498.545)"/><path class="a" d="M517.141,502.1h-2.947l.07.074a1.056,1.056,0,0,0,1.133.964,1.362,1.362,0,0,0,.994-.434l.465.489a2.026,2.026,0,0,1-1.459.58,1.749,1.749,0,0,1-1.843-1.954,1.8,1.8,0,0,1,1.814-2.015c1.215,0,1.79.867,1.79,2.015A2.332,2.332,0,0,1,517.141,502.1Zm-.622-.623-.07-.073a1.038,1.038,0,0,0-1.081-.965,1.059,1.059,0,0,0-1.093.965l-.076.073Z" transform="translate(-429.295 -498.545)"/><path class="a" d="M531.487,503.778a2.225,2.225,0,0,1-1.662-.684l.465-.495a1.614,1.614,0,0,0,1.18.537c.645,0,.872-.263.872-.489,0-.189-.093-.336-.593-.47-.076-.018-.57-.165-.651-.189-.639-.183-1.169-.452-1.169-1.081,0-.6.512-1.105,1.518-1.105a1.942,1.942,0,0,1,1.494.653l-.465.489a1.27,1.27,0,0,0-1.029-.5c-.628,0-.832.268-.832.446,0,.208.21.317.756.47.076.025.506.159.587.177.744.208,1.07.562,1.07,1.087C533.028,503.216,532.574,503.778,531.487,503.778Z" transform="translate(-441.322 -498.545)"/><path class="a" d="M555.607,500.251h-.68v-2.333c0-.519-.157-.934-.948-.934A.969.969,0,0,0,552.927,498v2.253h-.68v-5.129h.68v1.7h.012a1.5,1.5,0,0,1,1.122-.476,1.388,1.388,0,0,1,1.546,1.484Z" transform="translate(-457.894 -495.085)"/><path class="a" d="M571.836,502.1h-2.947l.07.074a1.056,1.056,0,0,0,1.133.964,1.362,1.362,0,0,0,.994-.434l.465.489a2.027,2.027,0,0,1-1.459.58,1.749,1.749,0,0,1-1.843-1.954,1.8,1.8,0,0,1,1.814-2.015c1.215,0,1.79.867,1.79,2.015A2.368,2.368,0,0,1,571.836,502.1Zm-.622-.623-.07-.073a1.038,1.038,0,0,0-1.081-.965,1.059,1.059,0,0,0-1.093.965l-.076.073Z" transform="translate(-469.722 -498.545)"/><path class="a" d="M587.276,500.6h-.215c-.611-.006-1.081.348-1.081,1.264v1.9h-.68v-3.847h.68v.616h.012a1.228,1.228,0,0,1,1.128-.659h.157Z" transform="translate(-482.323 -498.597)"/><path class="a" d="M598.135,502.1h-2.947l.07.074a1.056,1.056,0,0,0,1.133.964,1.362,1.362,0,0,0,.994-.434l.465.489a2.025,2.025,0,0,1-1.459.58,1.749,1.749,0,0,1-1.843-1.954,1.8,1.8,0,0,1,1.813-2.015c1.215,0,1.791.867,1.791,2.015A2.333,2.333,0,0,1,598.135,502.1Zm-.622-.623-.07-.073a1.038,1.038,0,0,0-1.081-.965,1.059,1.059,0,0,0-1.093.965l-.076.073Z" transform="translate(-489.16 -498.545)"/></g></g><g transform="translate(207.903 180.884)"><path class="a" d="M349.783,198.493l-1.941-1.109,1.941-1.107c5.4-3.058.682-11.166-4.714-8.078l-6.08,3.476a1.452,1.452,0,0,1-1.464-2.509l6.112-3.473c5.365-3.058.65-11.164-4.747-8.076l-1.92,1.1v-2.221c0-6.144-9.459-6.144-9.459,0v6.979a1.447,1.447,0,0,1-2.894,0v-6.979c0-6.144-9.427-6.144-9.427,0v2.234l-1.953-1.11c-5.363-3.088-10.111,5.018-4.714,8.076l6.081,3.473a1.444,1.444,0,0,1-1.432,2.509l-6.112-3.476c-5.366-3.088-10.08,4.988-4.714,8.078l1.953,1.107-1.953,1.109c-5.366,3.056-.651,11.162,4.714,8.076l6.112-3.476a1.43,1.43,0,0,1,1.432,2.476l-6.081,3.505c-5.4,3.058-.649,11.165,4.714,8.076l1.953-1.11v2.234c0,6.145,9.427,6.145,9.427,0V211.3a1.447,1.447,0,0,1,2.894,0v6.979c0,6.145,9.459,6.145,9.459,0v-2.219l1.92,1.094c5.4,3.089,10.112-5.018,4.747-8.076l-6.112-3.505a1.438,1.438,0,0,1,1.464-2.476l6.08,3.476C350.465,209.655,355.179,201.549,349.783,198.493Zm-25.725,2.351a12.235,12.235,0,0,0-2.022-3.46,12.231,12.231,0,0,0,2.022-3.46,12.6,12.6,0,0,0,4.033,0,12.234,12.234,0,0,0,2.023,3.46,12.238,12.238,0,0,0-2.023,3.46A12.6,12.6,0,0,0,324.058,200.844Z" transform="translate(-299.982 -171.884)"/><g transform="translate(0)"><path class="b" d="M319.352,274.765l-6.114,3.473c-5.363,3.089-10.111-5.018-4.714-8.076l6.081-3.505a1.43,1.43,0,0,0-1.432-2.476l-6.112,3.476c-5.366,3.086-10.08-5.02-4.714-8.076l6.111-3.473c12.388-7.076,23.28,11.581,10.894,18.658Z" transform="translate(-299.982 -232.971)"/><path class="c" d="M358.281,183.471v-6.979c0-6.144,9.427-6.144,9.427,0v6.979a1.447,1.447,0,0,0,2.894,0v-6.979c0-6.144,9.459-6.144,9.459,0v6.979c0,14.155-21.78,14.155-21.78,0Z" transform="translate(-343.072 -171.884)"/><path class="b" d="M410.345,195.38l6.077-3.476c5.4-3.088,10.112,5.018,4.747,8.076l-6.112,3.473a1.452,1.452,0,0,0,1.464,2.509l6.08-3.476c5.4-3.088,10.11,5.02,4.714,8.078l-6.079,3.473c-12.423,7.074-23.279-11.583-10.89-18.657Z" transform="translate(-377.513 -186.171)"/><path class="d" d="M421.235,256.108l6.079,3.473c5.4,3.056.682,11.162-4.714,8.076l-6.08-3.476a1.438,1.438,0,0,0-1.464,2.476l6.112,3.505c5.365,3.058.65,11.165-4.747,8.076l-6.077-3.473c-12.389-7.076-1.532-25.734,10.89-18.658Z" transform="translate(-377.513 -232.971)"/><path class="b" d="M308.458,214.037l-6.111-3.473c-5.366-3.09-.651-11.166,4.714-8.078l6.112,3.476a1.444,1.444,0,0,0,1.432-2.509l-6.081-3.473c-5.4-3.058-.649-11.164,4.714-8.076l6.114,3.476c12.386,7.074,1.495,25.732-10.894,18.657Z" transform="translate(-299.982 -186.171)"/><path class="b" d="M380.061,292.882v6.979c0,6.145-9.459,6.145-9.459,0v-6.979a1.447,1.447,0,0,0-2.894,0v6.979c0,6.145-9.427,6.145-9.427,0v-6.979c0-14.155,21.78-14.155,21.78,0Z" transform="translate(-343.072 -253.469)"/></g></g></g></svg>