<svg xmlns="http://www.w3.org/2000/svg" width="22.506" height="20.918" viewBox="0 0 22.506 20.918"><defs><style>.a{fill:#fff;}</style></defs><g transform="translate(0 -18.065)"><g transform="translate(7.252 34.846)"><path class="a" d="M172.229,399.834h-6.5a.75.75,0,1,0,0,1.5h6.5a.75.75,0,0,0,0-1.5Z" transform="translate(-164.977 -399.834)"/></g><g transform="translate(7.252 32.48)"><path class="a" d="M172.229,346.006h-6.5a.75.75,0,1,0,0,1.5h6.5a.75.75,0,0,0,0-1.5Z" transform="translate(-164.977 -346.006)"/></g><g transform="translate(0 18.065)"><path class="a" d="M20.755,23.157H18.368V18.815a.75.75,0,0,0-.75-.75H4.888a.75.75,0,0,0-.75.75v4.342H1.75A1.752,1.752,0,0,0,0,24.908v7.547a1.752,1.752,0,0,0,1.75,1.75H4.138v4.027a.75.75,0,0,0,.75.75h12.73a.75.75,0,0,0,.75-.75V34.205h2.387a1.752,1.752,0,0,0,1.75-1.75V24.908A1.752,1.752,0,0,0,20.755,23.157ZM5.638,19.565h11.23v3.592H5.638Zm11.23,17.917H5.638V31.345h11.23C16.868,31.531,16.868,37.341,16.868,37.482Zm.75-9.92h-1.91a.75.75,0,1,1,0-1.5h1.91a.75.75,0,0,1,0,1.5Z" transform="translate(0 -18.065)"/></g></g></svg>