<svg xmlns="http://www.w3.org/2000/svg" xmlns:xlink="http://www.w3.org/1999/xlink" width="152.192" height="133.716" viewBox="0 0 152.192 133.716"><defs><style>.a{fill:#fff;}.b{fill:#299bd7;}.b,.c,.d{mix-blend-mode:multiply;isolation:isolate;}.c{fill:url(#a);}.d{fill:#2a9cd7;}</style><linearGradient id="a" x1="0.5" y1="0.013" x2="0.5" y2="0.987" gradientUnits="objectBoundingBox"><stop offset="0" stop-color="#3bb3e7"/><stop offset="1" stop-color="#0066b2"/></linearGradient></defs><g transform="translate(-85.182 -164.884)"><g transform="translate(85.182 260.54)"><g transform="translate(0 0)"><path class="a" d="M197.193,438.646a14.453,14.453,0,0,1-3.608-.379,5.125,5.125,0,0,1-2.309-1.213,4.6,4.6,0,0,1-1.227-2.181,13.038,13.038,0,0,1-.361-3.319V417.978H194.1V431.4a5.6,5.6,0,0,0,.188,1.591,2.315,2.315,0,0,0,.592,1.015,2.192,2.192,0,0,0,1.082.546,7.727,7.727,0,0,0,1.66.152h6.609a7.732,7.732,0,0,0,1.66-.152,2.2,2.2,0,0,0,1.082-.546,2.324,2.324,0,0,0,.592-1.03,5.8,5.8,0,0,0,.187-1.606v-13.4h4.359v13.577a13.036,13.036,0,0,1-.361,3.319,4.6,4.6,0,0,1-1.227,2.181,5.128,5.128,0,0,1-2.309,1.213,14.6,14.6,0,0,1-3.637.379Z" transform="translate(-189.688 -416.766)"/><path class="a" d="M276.484,446.13v-9.152a7.324,7.324,0,0,0-.159-1.682,2.1,2.1,0,0,0-.548-1.031,2.178,2.178,0,0,0-1.068-.53,8.088,8.088,0,0,0-1.717-.152h-4.676a7.916,7.916,0,0,0-1.689.152,2.273,2.273,0,0,0-1.082.53,2.033,2.033,0,0,0-.563,1.031,7.331,7.331,0,0,0-.158,1.682v9.152h-4.3v-9.3a13.2,13.2,0,0,1,.361-3.334,4.606,4.606,0,0,1,1.227-2.2,5.134,5.134,0,0,1,2.309-1.212,14.5,14.5,0,0,1,3.608-.379h5.224a14.644,14.644,0,0,1,3.636.379A5.134,5.134,0,0,1,279.2,431.3a4.606,4.606,0,0,1,1.227,2.2,13.235,13.235,0,0,1,.36,3.334v9.3Z" transform="translate(-234.893 -424.249)"/><path class="a" d="M327.167,419.143a1.579,1.579,0,0,1-1.14-.333,1.456,1.456,0,0,1-.332-1.061v-1.758a1.4,1.4,0,0,1,.332-1.045,1.627,1.627,0,0,1,1.14-.318h1.414a1.679,1.679,0,0,1,1.169.318,1.4,1.4,0,0,1,.332,1.045v1.758a1.457,1.457,0,0,1-.332,1.061,1.628,1.628,0,0,1-1.169.333ZM325.7,436.508v-16h4.387v16Z" transform="translate(-276.484 -414.627)"/><path class="a" d="M365.007,441.766a8.838,8.838,0,0,1-.2,2.045,2.524,2.524,0,0,1-.794,1.349,3.61,3.61,0,0,1-1.616.742,12.73,12.73,0,0,1-2.67.227h-13.45v-3.545h12.9a1.857,1.857,0,0,0,1.212-.3,1.5,1.5,0,0,0,.347-1.152v-.546q0-.909-.332-1.136a2.042,2.042,0,0,0-1.111-.227h-8.774a6.989,6.989,0,0,1-2.15-.272,2.78,2.78,0,0,1-1.285-.818,2.919,2.919,0,0,1-.621-1.349,9.9,9.9,0,0,1-.158-1.894v-1.242a6.68,6.68,0,0,1,.216-1.819,2.676,2.676,0,0,1,.707-1.228,2.917,2.917,0,0,1,1.328-.681,8.774,8.774,0,0,1,2.107-.212h5.946v3.424H351.7a1.365,1.365,0,0,0-.909.242,1.14,1.14,0,0,0-.274.879v.758a1.281,1.281,0,0,0,.26.939,1.2,1.2,0,0,0,.837.242H360.1a9.673,9.673,0,0,1,2.454.258,3.229,3.229,0,0,1,1.5.819,2.964,2.964,0,0,1,.751,1.454,10.164,10.164,0,0,1,.2,2.2Z" transform="translate(-289.618 -424.249)"/><path class="a" d="M410.7,446.13a10.745,10.745,0,0,1-2.8-.3,4.437,4.437,0,0,1-1.746-.864,2.98,2.98,0,0,1-.909-1.364,5.833,5.833,0,0,1-.26-1.8v-1.546a6.281,6.281,0,0,1,.246-1.834,3.029,3.029,0,0,1,.851-1.364,3.935,3.935,0,0,1,1.66-.849,10.365,10.365,0,0,1,2.67-.288h11.574v-.364a2.773,2.773,0,0,0-.606-2.107,3.118,3.118,0,0,0-2.049-.53h-4.272V429.7h4.272a12.1,12.1,0,0,1,3.189.364,5.323,5.323,0,0,1,2.15,1.106,4.339,4.339,0,0,1,1.227,1.879,8.4,8.4,0,0,1,.39,2.712v4a11.549,11.549,0,0,1-.331,3,4.063,4.063,0,0,1-1.155,1.97,4.744,4.744,0,0,1-2.193,1.076,15.594,15.594,0,0,1-3.449.318Zm11.285-7.425H410.872a1.836,1.836,0,0,0-1.184.348,1.629,1.629,0,0,0-.433,1.318v1.121a1.4,1.4,0,0,0,.462,1.212,2.187,2.187,0,0,0,1.3.333H419.1a6.074,6.074,0,0,0,1.3-.121,1.9,1.9,0,0,0,.895-.439,1.946,1.946,0,0,0,.52-.894,5.294,5.294,0,0,0,.173-1.485Z" transform="translate(-327.085 -424.249)"/><path class="a" d="M474.341,419.143a1.578,1.578,0,0,1-1.14-.333,1.455,1.455,0,0,1-.332-1.061v-1.758a1.4,1.4,0,0,1,.332-1.045,1.626,1.626,0,0,1,1.14-.318h1.414a1.678,1.678,0,0,1,1.169.318,1.4,1.4,0,0,1,.332,1.045v1.758a1.458,1.458,0,0,1-.332,1.061,1.628,1.628,0,0,1-1.169.333Zm-1.472,17.365v-16h4.387v16Z" transform="translate(-370.407 -414.627)"/><path class="a" d="M501.511,446.13a14.454,14.454,0,0,1-3.608-.379,5.123,5.123,0,0,1-2.309-1.212,4.6,4.6,0,0,1-1.227-2.181,13.018,13.018,0,0,1-.361-3.319v-2.212a13.2,13.2,0,0,1,.361-3.334,4.6,4.6,0,0,1,1.227-2.2,5.133,5.133,0,0,1,2.309-1.212,14.505,14.505,0,0,1,3.608-.379h11.314v3.879h-11.17a7.506,7.506,0,0,0-1.659.152,1.867,1.867,0,0,0-1.544,1.576,8,8,0,0,0-.145,1.667v1.94a7.6,7.6,0,0,0,.145,1.621,2.141,2.141,0,0,0,.52,1.046,2.086,2.086,0,0,0,1.024.56,6.827,6.827,0,0,0,1.659.167h11.2v3.818Z" transform="translate(-383.897 -424.249)"/><path class="a" d="M561.817,446.13a14.449,14.449,0,0,1-3.608-.379,5.124,5.124,0,0,1-2.309-1.212,4.6,4.6,0,0,1-1.227-2.181,13.027,13.027,0,0,1-.361-3.319v-2.212a13.207,13.207,0,0,1,.361-3.334,4.609,4.609,0,0,1,1.227-2.2,5.133,5.133,0,0,1,2.309-1.212,14.5,14.5,0,0,1,3.608-.379h5.224a14.642,14.642,0,0,1,3.636.379,5.057,5.057,0,0,1,2.309,1.228,4.708,4.708,0,0,1,1.227,2.212,13.249,13.249,0,0,1,.361,3.334v2.182a13.064,13.064,0,0,1-.361,3.319,4.6,4.6,0,0,1-1.227,2.181,5.123,5.123,0,0,1-2.309,1.212,14.59,14.59,0,0,1-3.636.379Zm8.457-9.152a7.513,7.513,0,0,0-.159-1.7,1.993,1.993,0,0,0-.577-1.046,2.323,2.323,0,0,0-1.169-.515,10.932,10.932,0,0,0-1.9-.137h-4.07a10.674,10.674,0,0,0-1.89.137,2.309,2.309,0,0,0-1.155.515,1.987,1.987,0,0,0-.577,1.046,7.521,7.521,0,0,0-.159,1.7v1.94a7.31,7.31,0,0,0,.159,1.682,1.977,1.977,0,0,0,.577,1.03,2.409,2.409,0,0,0,1.155.53,9.634,9.634,0,0,0,1.89.152h4.07a9.866,9.866,0,0,0,1.9-.152,2.422,2.422,0,0,0,1.169-.53,1.983,1.983,0,0,0,.577-1.03,7.3,7.3,0,0,0,.159-1.682Z" transform="translate(-422.383 -424.249)"/></g><g transform="translate(0.321 29.074)"><path class="a" d="M197.106,495.824l-2.773,4v2.862h-.976v-2.862l-2.781-4h1.217l1.621,2.405.419.737h.016l.411-.745,1.637-2.4Z" transform="translate(-190.576 -495.519)"/><path class="a" d="M210.682,505.307c-1.677,0-2.5-1.177-2.5-2.752s.831-2.752,2.492-2.752c1.677,0,2.507,1.16,2.507,2.752A2.45,2.45,0,0,1,210.682,505.307Zm0-4.615c-1.1,0-1.556.8-1.556,1.863,0,1.05.468,1.863,1.556,1.863s1.556-.8,1.556-1.863S211.771,500.692,210.682,500.692Z" transform="translate(-201.812 -498.058)"/><path class="a" d="M229.719,505.372h-.943V504.8h-.016a2,2,0,0,1-1.524.661,1.887,1.887,0,0,1-2.112-2.126v-3.294h.943V503.3c0,.72.2,1.27,1.282,1.27a1.3,1.3,0,0,0,1.427-1.38v-3.15h.943Z" transform="translate(-212.623 -498.208)"/><path class="a" d="M244.58,500.881h-.3c-.847-.008-1.5.483-1.5,1.753v2.633h-.943v-5.335h.943v.855h.016a1.7,1.7,0,0,1,1.564-.914h.218Z" transform="translate(-223.291 -498.103)"/><path class="a" d="M261.939,502.684h-3.161v-6.859h3.1a1.871,1.871,0,0,1,2.08,1.9,1.5,1.5,0,0,1-.685,1.355v.017a1.6,1.6,0,0,1,.968,1.6C264.237,501.922,263.422,502.684,261.939,502.684Zm-.145-5.919h-2.145l.1.1v1.719l-.1.1h2.145c.879,0,1.169-.432,1.169-.974C262.963,497.086,262.592,496.764,261.793,496.764Zm.145,2.862h-2.29l.1.1v1.914l-.1.1h2.29c.968,0,1.307-.381,1.307-1.05C263.245,500.041,262.866,499.626,261.939,499.626Z" transform="translate(-234.101 -495.519)"/><path class="a" d="M281.361,505.372h-.944V504.8H280.4a2,2,0,0,1-1.524.661,1.887,1.887,0,0,1-2.113-2.126v-3.294h.944V503.3c0,.72.2,1.27,1.282,1.27a1.3,1.3,0,0,0,1.427-1.38v-3.15h.944Z" transform="translate(-245.58 -498.208)"/><path class="a" d="M295.008,505.316a3.086,3.086,0,0,1-2.306-.949l.645-.686a2.238,2.238,0,0,0,1.637.745c.9,0,1.209-.364,1.209-.678,0-.262-.129-.466-.822-.652-.1-.025-.79-.229-.9-.262-.887-.254-1.621-.627-1.621-1.5,0-.83.71-1.533,2.1-1.533a2.694,2.694,0,0,1,2.072.906l-.645.678a1.762,1.762,0,0,0-1.427-.694c-.871,0-1.153.372-1.153.618,0,.288.29.44,1.048.652.1.034.7.22.814.245,1.032.288,1.483.779,1.483,1.508C297.144,504.537,296.516,505.316,295.008,505.316Z" transform="translate(-255.75 -498.058)"/><path class="a" d="M308.534,496.235a.63.63,0,1,1,.564-.627A.563.563,0,0,1,308.534,496.235Zm.468,5.911h-.944V496.81H309Z" transform="translate(-265.494 -494.981)"/><path class="a" d="M319.494,505.223h-.943v-3.218c0-.771-.218-1.313-1.314-1.313a1.329,1.329,0,0,0-1.46,1.38v3.15h-.943v-5.335h.943v.576h.016a2.1,2.1,0,0,1,1.556-.661,1.924,1.924,0,0,1,2.145,2.049Z" transform="translate(-269.875 -498.058)"/><path class="a" d="M335.812,502.987h-4.088l.1.1a1.465,1.465,0,0,0,1.572,1.338,1.888,1.888,0,0,0,1.378-.6l.645.678a2.81,2.81,0,0,1-2.024.8,2.426,2.426,0,0,1-2.556-2.71,2.5,2.5,0,0,1,2.516-2.794c1.685,0,2.483,1.2,2.483,2.794A3.327,3.327,0,0,1,335.812,502.987Zm-.863-.864-.1-.1a1.44,1.44,0,0,0-1.5-1.338,1.468,1.468,0,0,0-1.516,1.338l-.1.1Z" transform="translate(-280.087 -498.058)"/><path class="a" d="M349.414,505.316a3.087,3.087,0,0,1-2.306-.949l.645-.686a2.239,2.239,0,0,0,1.637.745c.9,0,1.21-.364,1.21-.678,0-.262-.129-.466-.822-.652-.1-.025-.79-.229-.9-.262-.887-.254-1.621-.627-1.621-1.5,0-.83.71-1.533,2.1-1.533a2.694,2.694,0,0,1,2.072.906l-.645.678a1.762,1.762,0,0,0-1.427-.694c-.871,0-1.153.372-1.153.618,0,.288.29.44,1.049.652.1.034.7.22.814.245,1.032.288,1.483.779,1.483,1.508C351.55,504.537,350.922,505.316,349.414,505.316Z" transform="translate(-290.471 -498.058)"/><path class="a" d="M364.147,505.316a3.086,3.086,0,0,1-2.306-.949l.645-.686a2.238,2.238,0,0,0,1.637.745c.9,0,1.209-.364,1.209-.678,0-.262-.129-.466-.822-.652-.1-.025-.79-.229-.9-.262-.887-.254-1.621-.627-1.621-1.5,0-.83.71-1.533,2.1-1.533a2.694,2.694,0,0,1,2.072.906l-.645.678a1.762,1.762,0,0,0-1.427-.694c-.871,0-1.153.372-1.153.618,0,.288.291.44,1.048.652.1.034.7.22.814.245,1.032.288,1.483.779,1.483,1.508C366.283,504.537,365.655,505.316,364.147,505.316Z" transform="translate(-299.873 -498.058)"/><path class="a" d="M386.587,502.312a2.352,2.352,0,0,1-1.54.635c-.975,0-1.539-.652-1.539-1.736v-2.727l.056-.1h-.637v-.855h.637l-.056-.1v-.787l.943-.534v1.321l-.048.1H386v.855h-1.6l.048.1v2.735c0,.559.25.838.637.838a1.181,1.181,0,0,0,.87-.406Z" transform="translate(-313.329 -495.698)"/><path class="a" d="M399.147,505.238H398.2v-.407h-.016a2.363,2.363,0,0,1-1.54.5c-1.032,0-2.177-.407-2.177-1.685,0-1.668,2.072-1.77,3.354-1.77.129,0,.379.009.475.017l-.1-.1c-.008-.017,0-.093-.008-.1-.048-.711-.589-.974-1.29-.974a2.3,2.3,0,0,0-1.54.508l-.621-.669a3.182,3.182,0,0,1,2.16-.728c1.1,0,2.241.449,2.241,1.973Zm-.847-2.49c-.089,0-.314-.017-.435-.017-.234,0-.516,0-.806.017a4.694,4.694,0,0,0-.863.128c-.484.127-.79.364-.79.77,0,.635.734.8,1.241.8.475,0,1.556-.11,1.556-.8v-.8Z" transform="translate(-320.697 -498.074)"/><path class="a" d="M415.42,499.888v4.827a2.119,2.119,0,0,1-2.4,2.329,3.333,3.333,0,0,1-2.177-.762l.637-.677a2.564,2.564,0,0,0,1.54.551,1.3,1.3,0,0,0,1.459-1.44v-.44h-.016a2.017,2.017,0,0,1-1.524.593,2.26,2.26,0,0,1-2.418-2.515,2.341,2.341,0,0,1,2.41-2.549,2.012,2.012,0,0,1,1.532.626h.016v-.542Zm-2.435.8a1.47,1.47,0,0,0-1.524,1.659,1.542,1.542,0,1,0,3.08,0A1.486,1.486,0,0,0,412.985,500.692Z" transform="translate(-330.938 -498.058)"/><path class="a" d="M429.024,502.235h-.943v-7.113h.943Z" transform="translate(-342.146 -495.071)"/><path class="a" d="M435.019,496.235a.63.63,0,1,1,.564-.627A.563.563,0,0,1,435.019,496.235Zm.467,5.911h-.943V496.81h.943Z" transform="translate(-346.213 -494.981)"/><path class="a" d="M445.98,505.223h-.943v-3.218c0-.771-.217-1.313-1.314-1.313a1.329,1.329,0,0,0-1.46,1.38v3.15h-.943v-5.335h.943v.576h.017a2.1,2.1,0,0,1,1.556-.661,1.923,1.923,0,0,1,2.144,2.049Z" transform="translate(-350.595 -498.058)"/><path class="a" d="M462.3,502.987h-4.088l.1.1a1.464,1.464,0,0,0,1.572,1.338,1.889,1.889,0,0,0,1.379-.6l.645.678a2.809,2.809,0,0,1-2.024.8,2.425,2.425,0,0,1-2.555-2.71,2.5,2.5,0,0,1,2.515-2.794c1.685,0,2.483,1.2,2.483,2.794A3.338,3.338,0,0,1,462.3,502.987Zm-.863-.864-.1-.1a1.44,1.44,0,0,0-1.5-1.338,1.469,1.469,0,0,0-1.516,1.338l-.1.1Z" transform="translate(-360.807 -498.058)"/><path class="a" d="M485.4,499.888v4.827a2.119,2.119,0,0,1-2.4,2.329,3.333,3.333,0,0,1-2.177-.762l.637-.677a2.563,2.563,0,0,0,1.54.551,1.3,1.3,0,0,0,1.459-1.44v-.44h-.016a2.014,2.014,0,0,1-1.524.593,2.26,2.26,0,0,1-2.418-2.515,2.341,2.341,0,0,1,2.411-2.549,2.009,2.009,0,0,1,1.532.626h.016v-.542Zm-2.435.8a1.47,1.47,0,0,0-1.524,1.659,1.542,1.542,0,1,0,3.08,0A1.486,1.486,0,0,0,482.969,500.692Z" transform="translate(-375.6 -498.058)"/><path class="a" d="M499.783,505.307c-1.677,0-2.5-1.177-2.5-2.752s.83-2.752,2.491-2.752c1.677,0,2.507,1.16,2.507,2.752A2.45,2.45,0,0,1,499.783,505.307Zm0-4.615c-1.1,0-1.556.8-1.556,1.863,0,1.05.468,1.863,1.556,1.863s1.556-.8,1.556-1.863S500.872,500.692,499.783,500.692Z" transform="translate(-386.31 -498.058)"/><path class="a" d="M518.529,502.987h-4.088l.1.1a1.465,1.465,0,0,0,1.572,1.338,1.888,1.888,0,0,0,1.379-.6l.645.678a2.81,2.81,0,0,1-2.024.8,2.425,2.425,0,0,1-2.556-2.71,2.5,2.5,0,0,1,2.516-2.794c1.685,0,2.483,1.2,2.483,2.794A3.225,3.225,0,0,1,518.529,502.987Zm-.863-.864-.1-.1a1.44,1.44,0,0,0-1.5-1.338,1.468,1.468,0,0,0-1.516,1.338l-.1.1Z" transform="translate(-396.693 -498.058)"/><path class="a" d="M532.13,505.316a3.085,3.085,0,0,1-2.305-.949l.645-.686a2.238,2.238,0,0,0,1.637.745c.9,0,1.209-.364,1.209-.678,0-.262-.129-.466-.822-.652-.1-.025-.79-.229-.9-.262-.887-.254-1.621-.627-1.621-1.5,0-.83.71-1.533,2.1-1.533a2.694,2.694,0,0,1,2.072.906l-.645.678a1.762,1.762,0,0,0-1.427-.694c-.871,0-1.153.372-1.153.618,0,.288.291.44,1.048.652.105.034.7.22.814.245,1.032.288,1.484.779,1.484,1.508C534.267,504.537,533.638,505.316,532.13,505.316Z" transform="translate(-407.077 -498.058)"/><path class="a" d="M556.907,502.235h-.943V499c0-.72-.217-1.3-1.314-1.3a1.343,1.343,0,0,0-1.459,1.405v3.125h-.943v-7.113h.943v2.354h.016a2.073,2.073,0,0,1,1.556-.661,1.924,1.924,0,0,1,2.144,2.058Z" transform="translate(-421.386 -495.071)"/><path class="a" d="M573.224,502.987h-4.088l.1.1a1.465,1.465,0,0,0,1.572,1.338,1.888,1.888,0,0,0,1.379-.6l.645.678a2.811,2.811,0,0,1-2.024.8,2.425,2.425,0,0,1-2.555-2.71,2.5,2.5,0,0,1,2.515-2.794c1.685,0,2.483,1.2,2.483,2.794A3.3,3.3,0,0,1,573.224,502.987Zm-.863-.864-.1-.1a1.44,1.44,0,0,0-1.5-1.338,1.469,1.469,0,0,0-1.516,1.338l-.1.1Z" transform="translate(-431.598 -498.058)"/><path class="a" d="M588.04,500.881h-.3c-.847-.008-1.5.483-1.5,1.753v2.633H585.3v-5.335h.943v.855h.016a1.7,1.7,0,0,1,1.564-.914h.218Z" transform="translate(-442.479 -498.103)"/><path class="a" d="M599.523,502.987h-4.087l.1.1a1.465,1.465,0,0,0,1.572,1.338,1.889,1.889,0,0,0,1.379-.6l.645.678a2.809,2.809,0,0,1-2.024.8,2.425,2.425,0,0,1-2.555-2.71,2.5,2.5,0,0,1,2.515-2.794c1.685,0,2.483,1.2,2.483,2.794A3.226,3.226,0,0,1,599.523,502.987Zm-.862-.864-.1-.1a1.44,1.44,0,0,0-1.5-1.338,1.468,1.468,0,0,0-1.516,1.338l-.1.1Z" transform="translate(-448.382 -498.058)"/></g></g><g transform="translate(124.902 164.884)"><path class="a" d="M369.052,208.789l-2.692-1.539,2.692-1.536c7.484-4.241.947-15.487-6.538-11.2l-8.432,4.821a2.014,2.014,0,0,1-2.03-3.48l8.476-4.817c7.441-4.242.9-15.484-6.583-11.2l-2.662,1.521v-3.081c0-8.522-13.119-8.522-13.119,0v9.679a2.007,2.007,0,0,1-4.013,0v-9.679c0-8.522-13.075-8.522-13.075,0v3.1l-2.709-1.539c-7.438-4.283-14.023,6.959-6.538,11.2l8.434,4.817a2,2,0,0,1-1.986,3.48l-8.476-4.821c-7.442-4.283-13.98,6.917-6.539,11.2l2.708,1.536-2.708,1.539c-7.442,4.238-.9,15.481,6.539,11.2l8.476-4.821a1.984,1.984,0,0,1,1.986,3.434l-8.434,4.862c-7.485,4.242-.9,15.485,6.538,11.2l2.709-1.539v3.1c0,8.522,13.075,8.522,13.075,0v-9.679a2.007,2.007,0,0,1,4.013,0v9.679c0,8.522,13.119,8.522,13.119,0v-3.078l2.662,1.518c7.485,4.284,14.024-6.959,6.583-11.2l-8.476-4.862c-2.3-1.292-.27-4.727,2.03-3.434l8.432,4.821C370,224.27,376.536,213.028,369.052,208.789Zm-35.678,3.26a16.969,16.969,0,0,0-2.8-4.8,16.963,16.963,0,0,0,2.8-4.8,17.475,17.475,0,0,0,5.593,0,16.969,16.969,0,0,0,2.806,4.8,16.974,16.974,0,0,0-2.806,4.8A17.479,17.479,0,0,0,333.374,212.05Z" transform="translate(-299.982 -171.884)"/><g transform="translate(0)"><path class="b" d="M326.847,282.594l-8.48,4.817c-7.438,4.284-14.023-6.959-6.538-11.2l8.434-4.862a1.984,1.984,0,0,0-1.986-3.434l-8.476,4.821c-7.442,4.28-13.98-6.962-6.539-11.2l8.476-4.817c17.182-9.814,32.287,16.062,15.109,25.877Z" transform="translate(-299.982 -224.629)"/><path class="c" d="M358.281,187.954v-9.679c0-8.522,13.075-8.522,13.075,0v9.679a2.007,2.007,0,0,0,4.013,0v-9.679c0-8.522,13.119-8.522,13.119,0v9.679c0,19.633-30.208,19.633-30.208,0Z" transform="translate(-337.187 -171.884)"/><path class="b" d="M412.46,196.991l8.429-4.821c7.485-4.283,14.024,6.959,6.583,11.2L419,208.188a2.014,2.014,0,0,0,2.03,3.48l8.432-4.821c7.484-4.283,14.022,6.962,6.538,11.2l-8.431,4.817c-17.23,9.812-32.287-16.065-15.1-25.877Z" transform="translate(-366.924 -184.22)"/><path class="d" d="M427.564,256.717l8.431,4.817c7.484,4.238.946,15.481-6.538,11.2l-8.432-4.821c-2.3-1.293-4.331,2.142-2.03,3.434l8.476,4.862c7.441,4.242.9,15.485-6.583,11.2l-8.429-4.817c-17.183-9.815-2.125-35.691,15.1-25.877Z" transform="translate(-366.924 -224.629)"/><path class="b" d="M311.738,222.868l-8.476-4.817c-7.442-4.286-.9-15.487,6.539-11.2l8.476,4.821a2,2,0,0,0,1.986-3.48l-8.434-4.817c-7.485-4.242-.9-15.484,6.538-11.2l8.48,4.821c17.179,9.811,2.073,35.688-15.109,25.877Z" transform="translate(-299.982 -184.22)"/><path class="b" d="M388.489,296.989v9.68c0,8.522-13.119,8.522-13.119,0v-9.68a2.007,2.007,0,0,0-4.013,0v9.68c0,8.522-13.075,8.522-13.075,0v-9.68c0-19.632,30.208-19.632,30.208,0Z" transform="translate(-337.187 -242.327)"/></g></g></g></svg>