<svg xmlns="http://www.w3.org/2000/svg" width="35.148" height="23.028" viewBox="0 0 35.148 23.028"><defs><style>.a{fill:#5aba47;}.b{fill:#f5f5f5;}</style></defs><g transform="translate(0 -88.276)"><path class="a" d="M32.516,111.3H2.632A2.632,2.632,0,0,1,0,108.672V90.908a2.632,2.632,0,0,1,2.632-2.632H32.516a2.632,2.632,0,0,1,2.632,2.632v17.764A2.632,2.632,0,0,1,32.516,111.3Z" transform="translate(0 0)"/><g transform="translate(6.949 93.124)"><path class="b" d="M102.455,168.555c.06.383.291.5.492.487a.5.5,0,0,0,.445-.464v-1.314a.119.119,0,0,1,.239,0v1.319a.477.477,0,0,0,.655.443l.119-.048c.011,1.1-.056,2.072-.057,2.09a.239.239,0,0,0,.221.255h.017a.239.239,0,0,0,.238-.222c.006-.078.079-1.139.057-2.315l.072-.029a.239.239,0,0,1,.2.008.683.683,0,0,0,.788-.128l.043-.043a.713.713,0,0,0,.173-.733l-.2-.61a.239.239,0,0,0,.177-.442l-.478-.239a.239.239,0,0,0-.334.289l.384,1.153a.238.238,0,0,1-.058.244l-.043.043a.205.205,0,0,1-.236.038.714.714,0,0,0-.5-.05,8.239,8.239,0,0,0-.292-2.058.239.239,0,0,0-.453.151,8.212,8.212,0,0,1,.274,2.085l-.286.114v-1.319a.6.6,0,0,0-1.195,0v1.156l-.244-1.2a.239.239,0,1,0-.468.095Z" transform="translate(-102.132 -165.577)"/><path class="b" d="M109.4,163.311a.239.239,0,0,0,.239-.239v-.239a.239.239,0,1,0-.478,0v.239A.239.239,0,0,0,109.4,163.311Z" transform="translate(-108.615 -162.34)"/><path class="b" d="M144.2,163.072h.239a.239.239,0,1,0,0-.478H144.2a.239.239,0,1,0,0,.478Z" transform="translate(-141.023 -162.34)"/><path class="b" d="M106.99,214.823l-1.194.717a.239.239,0,1,0,.246.41l1.194-.717a.239.239,0,1,0-.246-.41Z" transform="translate(-105.373 -210.952)"/><path class="b" d="M119.86,169.873l.006,0a.546.546,0,0,0,.11.224.469.469,0,0,0,.407.158.659.659,0,0,0,.5-.261.438.438,0,0,0,.05.03.452.452,0,0,0,.421-.014.907.907,0,0,0,.428-.841.244.244,0,0,0-.249-.226.24.24,0,0,0-.229.248s.005.286-.168.392a.582.582,0,0,1-.074-.2.239.239,0,0,0-.475.039c0,.035-.008.341-.244.367a.583.583,0,0,1,0-.313.239.239,0,0,0-.367-.253l-.133.091c-.063-1.385-.209-3-.211-3.02a.239.239,0,1,0-.476.043c0,.022.171,1.89.223,3.316l-.037.035a.616.616,0,0,0-.523-.411.872.872,0,0,0-.841.532.565.565,0,0,0,.183.712.8.8,0,0,0,.712.033,2,2,0,0,1-.389.736,1,1,0,0,1-.763.389.628.628,0,0,1-.464-.2,1.364,1.364,0,0,1-.253-.855.239.239,0,0,0-.225-.251.234.234,0,0,0-.252.225,1.832,1.832,0,0,0,.375,1.2,1.1,1.1,0,0,0,.8.355h.048a1.456,1.456,0,0,0,1.1-.556,2.471,2.471,0,0,0,.547-1.224,2.707,2.707,0,0,1-1.146,2.145,1.193,1.193,0,0,1-1.2.087,1.025,1.025,0,0,1-.526-1.01.239.239,0,0,0-.474-.059,1.5,1.5,0,0,0,.788,1.5,1.624,1.624,0,0,0,.723.172,1.768,1.768,0,0,0,.937-.283,3.176,3.176,0,0,0,1.372-2.553C119.868,170.218,119.865,170.05,119.86,169.873Zm-1.44.246c-.043-.028-.009-.118,0-.136a.406.406,0,0,1,.333-.235h.019c.031,0,.112.01.147.191,0,.019.007.039.009.059C118.66,170.155,118.481,170.16,118.42,170.119Z" transform="translate(-115.023 -165.579)"/><path class="b" d="M102.129,243.621a.239.239,0,0,0-.327.085.491.491,0,0,1-.04.057l-.008-.02a1.607,1.607,0,0,1,.007-.81.239.239,0,0,0-.462-.123,2.057,2.057,0,0,0,.007,1.1c.11.292.278.366.4.376h.032a.628.628,0,0,0,.476-.341A.238.238,0,0,0,102.129,243.621Z" transform="translate(-101.225 -236.885)"/><path class="b" d="M175.368,164.744a.237.237,0,0,0,.147-.051l1.2-.945a.23.23,0,0,0,.039-.046.6.6,0,1,0-.687-.053l-.852.669a.239.239,0,0,0,.148.427Zm1.085-1.672a.119.119,0,1,1-.119.119A.12.12,0,0,1,176.452,163.072Z" transform="translate(-170.055 -162.34)"/><path class="b" d="M185.5,190.444a.238.238,0,0,0-.3.151.73.73,0,0,0,.093.7.482.482,0,0,0,.357.136,1.05,1.05,0,0,0,.33-.061.239.239,0,1,0-.151-.453.827.827,0,0,1-.2.042.457.457,0,0,1,.02-.218A.238.238,0,0,0,185.5,190.444Z" transform="translate(-179.387 -188.266)"/><path class="b" d="M227.788,163.393a.239.239,0,0,0,.3-.162l.139-.478a.239.239,0,0,0-.459-.134l-.139.478A.239.239,0,0,0,227.788,163.393Z" transform="translate(-218.939 -162.204)"/><path class="b" d="M206.068,160.059a.239.239,0,1,0,.241-.412c-.048-.028-.042-.107-.04-.123a.188.188,0,0,1,.11-.16.239.239,0,1,0-.142-.456.656.656,0,0,0-.442.562A.589.589,0,0,0,206.068,160.059Z" transform="translate(-198.611 -158.897)"/><path class="b" d="M178.993,232.189a.239.239,0,0,0-.045.474.449.449,0,0,1,.045.243.239.239,0,1,0,.478,0C179.471,232.2,179.012,232.189,178.993,232.189Z" transform="translate(-173.432 -227.158)"/><path class="b" d="M234.9,208.513a.551.551,0,0,0,.09.007.817.817,0,0,0,.565-.282.239.239,0,0,0-.338-.338c-.143.143-.22.146-.239.142-.046-.007-.087-.066-.1-.082a.239.239,0,0,0-.426.216A.646.646,0,0,0,234.9,208.513Z" transform="translate(-225.287 -204.47)"/><path class="b" d="M294.055,190.987l0-.011a.239.239,0,0,0-.453.153.535.535,0,0,0,.389.372.4.4,0,0,0,.053,0,.585.585,0,0,0,.462-.319.239.239,0,1,0-.4-.265A.728.728,0,0,1,294.055,190.987Z" transform="translate(-280.38 -188.623)"/><path class="b" d="M206.08,172.277c0-1.019-.045-1.974-.107-2.812a12.1,12.1,0,0,1,.839,1.7.239.239,0,0,0,.224.155.242.242,0,0,0,.084-.015.239.239,0,0,0,.14-.308,15.823,15.823,0,0,0-1.382-2.618c-.131-1.287-.277-2.1-.279-2.118a.239.239,0,0,0-.47.085c0,.01.077.431.167,1.139-.184-.272-.354-.518-.5-.72l.012,0a.239.239,0,1,0,.151-.453l-.717-.239a.236.236,0,0,0-.3.16.521.521,0,0,0-.5-.12.407.407,0,0,0-.228.425,2.159,2.159,0,0,0,.165.677c.141.4.229.691.08.831a.261.261,0,0,1-.245.086c-.147-.037-.293-.234-.39-.525a.226.226,0,0,0-.019-.033,4.063,4.063,0,0,0-.073-1.322.239.239,0,1,0-.468.094,2.274,2.274,0,0,1-.125,1.7.429.429,0,0,1-.357.162.137.137,0,0,1-.114-.053,2.3,2.3,0,0,1-.127-1.347.239.239,0,0,0-.237-.273c-.411,0-.567.467-.7.88-.06.181-.173.518-.251.553-.145,0-.238-.425-.239-.717a.239.239,0,0,0-.239-.238h0a.239.239,0,0,0-.239.239c0,.551.188,1.194.717,1.194.394,0,.553-.429.687-.828a1.5,1.5,0,0,0,.271.849.613.613,0,0,0,.475.218.909.909,0,0,0,.727-.337,1.1,1.1,0,0,0,.089-.132.891.891,0,0,0,.5.376.69.69,0,0,0,.169.021.758.758,0,0,0,.52-.222.709.709,0,0,0,.08-.1.644.644,0,0,0,.176.027.966.966,0,0,0,.5-.152.239.239,0,0,0-.257-.4.507.507,0,0,1-.27.071,2.464,2.464,0,0,0-.181-.785,3.322,3.322,0,0,1-.124-.4c.02.017.039.034.056.051a.239.239,0,0,0,.338,0,.229.229,0,0,0,.035-.052c.248.341.757,1.058,1.281,1.884.1,1.016.188,2.311.188,3.732a.239.239,0,0,0,.478,0Z" transform="translate(-192.874 -165.573)"/><path class="b" d="M293.825,167.031a.239.239,0,1,0,.478,0,2.435,2.435,0,0,0-.264-.824.239.239,0,0,0-.427.214A2.121,2.121,0,0,1,293.825,167.031Z" transform="translate(-280.381 -165.582)"/><path class="b" d="M263.572,250.093a.239.239,0,0,0-.321.105.688.688,0,0,1-.1.142,1.333,1.333,0,0,1,.063-.442.239.239,0,0,0-.4-.239l-.478.478a.239.239,0,0,0,.338.338l.012-.012a.494.494,0,0,0,.128.251.437.437,0,0,0,.31.137.423.423,0,0,0,.066-.005.777.777,0,0,0,.484-.433A.238.238,0,0,0,263.572,250.093Z" transform="translate(-251.214 -243.363)"/><path class="b" d="M172.729,206.037h-1.684q.022-.089.046-.17c.671-.14,1.07-.356,1.188-.645a.534.534,0,0,0-.09-.536.592.592,0,0,0-.6-.258c-.34.069-.642.435-.859,1.02a2.746,2.746,0,0,0-1.379.6,3.7,3.7,0,0,0-.5-1.588.239.239,0,1,0-.4.265,3.449,3.449,0,0,1,.438,1.779,1.89,1.89,0,0,1-1.433,1.911c-.268,0-.386-.319-.437-.588a2.743,2.743,0,0,0,1.147-1.265,1.9,1.9,0,0,0-.159-1.295l-.018-.042.015.014a.239.239,0,0,0,.338-.338c-.14-.14-.411-.359-.657-.256a.407.407,0,0,0-.228.425,1.016,1.016,0,0,0,.111.384,1.444,1.444,0,0,1,.135.991,2.021,2.021,0,0,1-.782.862.235.235,0,0,0-.181-.088h0a.239.239,0,0,0-.239.239c0,.043,0,.089,0,.136a12.558,12.558,0,0,1-1.537.841.239.239,0,0,0,.1.456.236.236,0,0,0,.1-.021,13.759,13.759,0,0,0,1.427-.764.929.929,0,0,0,.863.785,2.029,2.029,0,0,0,1.6-1.168,1.39,1.39,0,0,0,.159.228,2.693,2.693,0,0,0,1.825.7.239.239,0,0,0,.017-.477.511.511,0,0,1-.3-.145.41.41,0,0,1-.078-.314c.024-.294.974-.514,1.811-.527a.239.239,0,0,0,.221-.159l.239-.672a.239.239,0,0,0-.225-.319Zm-1.049-1.141.018,0c.023,0,.059.011.107.076.009.012.038.054.031.072-.027.068-.192.179-.536.281C171.452,205.027,171.6,204.912,171.681,204.9Zm-1.443,3.14a1.463,1.463,0,0,1-.661-.4,1.015,1.015,0,0,1-.212-.841.7.7,0,0,1,.05-.1c.336-.031,1.235.1,1.3.359a.8.8,0,0,0-.5.623A1.007,1.007,0,0,0,170.238,208.036Z" transform="translate(-160.465 -201.229)"/><path class="b" d="M292.006,166.95l-.239-.717a.239.239,0,0,0-.464.1c.165,1.648.477,4.863.477,5.232,0,.331-.589.983-1.54,1.459a.239.239,0,0,0,.214.427c.869-.435,1.8-1.21,1.8-1.886,0-.353-.244-2.892-.384-4.319A.239.239,0,0,0,292.006,166.95Z" transform="translate(-277.141 -165.577)"/><path class="b" d="M336.132,194.392a.239.239,0,0,0,.4-.228,1.205,1.205,0,0,1-.034-.464.242.242,0,0,0,.248-.2.239.239,0,0,0-.2-.27.431.431,0,0,0-.394.133.547.547,0,0,0-.12.256l-.277-.277a.239.239,0,1,0-.338.338Z" transform="translate(-319.274 -190.863)"/><path class="b" d="M341.124,213.308l-.9.642a.239.239,0,0,0,.278.388l.9-.642a.239.239,0,1,0-.278-.388Z" transform="translate(-323.728 -209.531)"/><path class="b" d="M352.793,225.754a.239.239,0,0,0,.021.317.663.663,0,0,1,.048.344.239.239,0,0,0,.23.247h.009a.239.239,0,0,0,.239-.23c.017-.488-.142-.666-.212-.72A.239.239,0,0,0,352.793,225.754Z" transform="translate(-335.476 -221.078)"/><path class="b" d="M325.708,172.019a.239.239,0,0,0,.239-.239c0-.352-.018-.746-.048-1.155a8.729,8.729,0,0,1,.56,1.04.238.238,0,0,0,.22.145.235.235,0,0,0,.094-.019.239.239,0,0,0,.125-.314,13.141,13.141,0,0,0-1.093-1.884c-.094-.877-.216-1.736-.311-2.352a.231.231,0,0,0,.149-.037.135.135,0,1,1,.132-.147.868.868,0,0,1,.087.585.239.239,0,0,0,.185.282.253.253,0,0,0,.049,0,.239.239,0,0,0,.234-.191,1.354,1.354,0,0,0-.152-.938.24.24,0,0,0-.33-.073.135.135,0,1,1-.134.147l-.4-.627a.239.239,0,0,0-.436.171c0,.019.186,1.067.348,2.331-.183-.259-.366-.512-.544-.753-.029-.361-.058-.7-.083-.972a.239.239,0,0,0,.146-.336l-.239-.478a.239.239,0,0,0-.451.131c.029.285.058.6.087.932-.151-.2-.291-.382-.41-.536a.239.239,0,0,0-.049-.395l-.478-.239a.239.239,0,0,0-.293.363c.013.016.6.753,1.3,1.7a19.2,19.2,0,0,1,.089,3.564c-.021.063-.058.137-.092.14-.144.02-.489-.3-.662-.649a.333.333,0,0,0-.32-.217c-.257.016-.357.3-.539.811a3.365,3.365,0,0,1-.475,1.011,2.712,2.712,0,0,1-.3-.94.238.238,0,0,0,.461-.081c0-.356-.249-3.069-.388-4.556a.239.239,0,0,0,.137-.3l-.239-.717a.239.239,0,0,0-.464.1c.162,1.7.467,5,.476,5.45l0-.012a.239.239,0,1,0-.473.068c.07.488.248,1.328.659,1.465a.4.4,0,0,0,.127.021.469.469,0,0,0,.336-.156,3.444,3.444,0,0,0,.592-1.193c.035-.1.077-.216.116-.316.219.32.6.718.989.687a.586.586,0,0,0,.511-.465,13.453,13.453,0,0,0-.009-2.982c.2.282.4.571.595.856.075.715.128,1.432.128,2.021A.239.239,0,0,0,325.708,172.019Z" transform="translate(-306.306 -165.584)"/><path class="b" d="M383.156,171.164c-.169-1.261-.4-2.721-.554-3.617a.235.235,0,0,0,.2-.042.239.239,0,0,0,.045-.335l-.433-.567a.239.239,0,0,0-.425.186c0,.024.43,2.477.694,4.439a2.239,2.239,0,0,1-.393,1.793,1.056,1.056,0,0,1-.876.327.239.239,0,1,0-.03.477c.04,0,.08,0,.119,0a1.508,1.508,0,0,0,1.136-.482A2.667,2.667,0,0,0,383.156,171.164Z" transform="translate(-361.942 -165.986)"/><path class="b" d="M371.078,256.208a.242.242,0,0,0,.012.336.1.1,0,0,1,.029.049.112.112,0,0,1-.036.053.239.239,0,1,0,.338.338.542.542,0,0,0,.176-.408.568.568,0,0,0-.187-.389A.237.237,0,0,0,371.078,256.208Z" transform="translate(-352.492 -249.455)"/><path class="b" d="M158.768,327.1H157.1v-.239a.239.239,0,1,0-.478,0v.239H143.957a3.335,3.335,0,0,0,2.15.717h10.511v.478a.239.239,0,0,0,.239.239h1.911a.717.717,0,1,0,0-1.433Zm0,.956H157.1v-.239h1.911l-.043-.129a.231.231,0,0,1,.043.129A.239.239,0,0,1,158.768,328.053Z" transform="translate(-141.023 -315.106)"/></g></g></svg>