<svg xmlns="http://www.w3.org/2000/svg" width="20.061" height="20.061" viewBox="0 0 20.061 20.061"><defs><style>.a{fill:#fff;}</style></defs><path class="a" d="M385.975,4.89h4.373L385.388,0V4.3A.588.588,0,0,0,385.975,4.89Z" transform="translate(-370.288)"/><path class="a" d="M71.411,4.3V0H60.419a.588.588,0,0,0-.588.588V4.545H66.4a3.231,3.231,0,0,1,3.227,3.227v6.821A3.231,3.231,0,0,1,66.4,17.821H59.831v1.652a.588.588,0,0,0,.588.588H76.96a.588.588,0,0,0,.588-.588V6.065H73.174A1.765,1.765,0,0,1,71.411,4.3Z" transform="translate(-57.487)"/><path class="a" d="M11,147.1v6.821a2.091,2.091,0,0,1-2.091,2.091H2.091A2.091,2.091,0,0,1,0,153.919V147.1a2.091,2.091,0,0,1,2.091-2.091H8.909A2.091,2.091,0,0,1,11,147.1Zm-3.273,4.016a.588.588,0,0,0-.831,0l-.808.808v-4.268a.588.588,0,0,0-1.175,0v4.268l-.808-.808a.588.588,0,0,0-.831.831l1.811,1.811a.591.591,0,0,0,.831,0l1.811-1.811a.588.588,0,0,0,0-.831Z" transform="translate(0 -139.326)"/></svg>